<?xml version="1.0" standalone="yes"?>
<svg height="450" width="700" xmlns="http://www.w3.org/2000/svg" version="1.1">
<defs >
<font id="Normal" horiz-adv-x="1041" ><font-face
    font-family="PlotFont"
    font-weight="normal"
    font-style="normal"
    units-per-em="2048"
    panose-1="2 11 6 4 3 5 4 4 2 4"
    ascent="2059"
    descent="-430"
    alphabetic="0" />
<missing-glyph horiz-adv-x="2048" d="M256 0V1536H1792V0H256ZM384 128H1664V1408H384V128Z" />
<glyph unicode=" " glyph-name="space" horiz-adv-x="720" />
<glyph unicode="!" glyph-name="exclam" horiz-adv-x="806" d="M515 1489L489 410H319L291 1489H515ZM505 0H301V211H505V0Z" />
<glyph unicode="&quot;" glyph-name="quotedbl" horiz-adv-x="940" d="M772 1556L729 977H597L554 1556H772ZM386 1556L343 977H211L168 1556H386Z" />
<glyph unicode="#" glyph-name="numbersign" horiz-adv-x="1676" d="M1481 932H1148L1056 556H1364V421H1021L917 0H788L892 421H622L518 0H389L493 421H195V556H528L620 932H312V1067H655L760 1489H889L784 1067H1054L1159 1489H1288L1183 1067H1481V932ZM1022
934H748L654 554H928L1022 934Z" />
<glyph unicode="$" glyph-name="dollar" horiz-adv-x="1302" d="M1160 380Q1160 225 1039 123T722 1V-361H604V-4Q472 -3 356 21T155 85V283H171Q190 269 239 243T334 199Q386 180 455 164T604 144V577Q564 585 530 592T467 608Q304 649 233 731T162 935Q162 1083
278 1185T604 1304V1576H722V1306Q823 1304 929 1282T1107 1231V1035H1093Q1018 1081 937 1116T722 1161V730Q752 725 787 717T848 703Q997 671 1078 593T1160 380ZM604 747V1160Q497 1152 424 1102T351 961Q351 870 405 824T604 747ZM971 354Q971 448 913 491T722
560V146Q842 158 906 207T971 354Z" />
<glyph unicode="%" glyph-name="percent" horiz-adv-x="2204" d="M884 1076Q884 852 790 743T517 634Q335 634 242 743T149 1075Q149 1299 244 1408T517 1517Q698 1517 791 1407T884 1076ZM1575 1489L795 0H630L1410 1489H1575ZM2055 413Q2055 189 1960 80T1687
-29Q1506 -29 1413 81T1320 412Q1320 636 1414 745T1687 854Q1869 854 1962 745T2055 413ZM706 1076Q706 1248 662 1316T517 1384Q415 1384 371 1316T327 1075Q327 902 371 835T517 767Q617 767 661 834T706 1076ZM1877 413Q1877 585 1833 653T1688 721Q1586 721
1542 653T1498 412Q1498 239 1542 172T1688 104Q1788 104 1832 171T1877 413Z" />
<glyph unicode="&amp;" glyph-name="ampersand" horiz-adv-x="1488" d="M792 1191Q792 1286 736 1340T591 1395Q499 1395 441 1334T383 1183Q383 1108 422 1050T593 913Q691 948 741 1015T792 1191ZM986 315L508 781Q477 766 446 742T384 675Q356 636 338 581T320
457Q320 311 405 222T648 132Q741 132 832 177T986 315ZM1287 909V813Q1287 717 1262 597T1177 368L1555 0H1309L1080 224Q965 82 845 26T598 -31Q390 -31 253 90T115 409Q115 501 141 568T202 684Q237 731 289 772T394 845Q284 917 236 990T187 1174Q187 1241
213 1301T293 1412Q343 1460 423 1490T601 1520Q774 1520 881 1433T988 1211Q988 1167 976 1112T935 1012Q903 963 844 918T691 841L1062 479Q1076 519 1083 567T1091 667Q1093 723 1093 792T1092 909H1287Z" />
<glyph unicode="&apos;" glyph-name="quotesingle" horiz-adv-x="550" d="M386 1556L343 977H207L164 1556H386Z" />
<glyph unicode="(" glyph-name="parenleft" horiz-adv-x="930" d="M783 -412H554Q377 -209 279 31T181 572Q181 873 279 1113T554 1556H783V1546Q702 1473 629 1378T492 1155Q432 1032 395 884T357 572Q357 401 393 259T492 -11Q552 -134 629 -233T783 -402V-412Z" />
<glyph unicode=")" glyph-name="parenright" horiz-adv-x="930" d="M749 572Q749 271 651 31T376 -412H147V-402Q224 -333 301 -234T438 -11Q500 117 536 259T573 572Q573 736 536 884T438 1155Q375 1282 302 1377T147 1546V1556H376Q553 1353 651 1113T749 572Z" />
<glyph unicode="*" glyph-name="asterisk" horiz-adv-x="1302" d="M1137 887L1073 777L711 990L717 630H588L593 990L232 776L167 886L548 1093L167 1300L232 1410L594 1197L588 1556H717L710 1197L1073 1409L1137 1299L757 1094L1137 887Z" />
<glyph unicode="+" glyph-name="plus" horiz-adv-x="1676" d="M1466 572H921V27H755V572H210V732H755V1277H921V732H1466V572Z" />
<glyph unicode="," glyph-name="comma" horiz-adv-x="745" d="M575 285L293 -370H147L321 285H575Z" />
<glyph unicode="-" glyph-name="hyphen" horiz-adv-x="930" d="M777 561H153V742H777V561Z" />
<glyph unicode="." glyph-name="period" horiz-adv-x="745" d="M492 0H253V285H492V0Z" />
<glyph unicode="/" glyph-name="slash" horiz-adv-x="930" d="M860 1556L143 -304H-30L684 1556H860Z" />
<glyph unicode="0" glyph-name="zero" horiz-adv-x="1302" d="M1167 745Q1167 344 1042 157T652 -31Q384 -31 261 159T137 743Q137 1140 262 1329T652 1519Q920 1519 1043 1327T1167 745ZM904 291Q939 372 951 481T964 745Q964 897 952 1009T903 1199Q868 1276
808 1315T652 1354Q558 1354 497 1315T399 1197Q365 1123 353 1004T340 743Q340 587 351 482T398 294Q431 216 491 175T652 134Q746 134 808 173T904 291Z" />
<glyph unicode="1" glyph-name="one" horiz-adv-x="1302" d="M1084 0H278V152H588V1150H278V1286Q341 1286 413 1296T522 1327Q568 1352 594 1390T625 1494H780V152H1084V0Z" />
<glyph unicode="2" glyph-name="two" horiz-adv-x="1302" d="M1169 0H161V209Q266 299 371 389T568 568Q760 754 831 863T902 1100Q902 1216 826 1281T612 1347Q521 1347 415 1315T208 1217H198V1427Q269 1462 387 1491T617 1520Q846 1520 976 1410T1106 1110Q1106
1025 1085 952T1021 812Q982 750 930 690T802 557Q695 452 581 354T368 171H1169V0Z" />
<glyph unicode="3" glyph-name="three" horiz-adv-x="1302" d="M1038 717Q1086 674 1117 609T1148 441Q1148 339 1111 254T1007 106Q932 36 831 3T608 -31Q484 -31 364 -2T167 63V272H182Q267 216 382 179T604 142Q667 142 738 163T853 225Q899 269 921 322T944
456Q944 536 919 588T848 671Q803 702 739 713T601 725H511V891H581Q733 891 823 954T914 1140Q914 1194 891 1234T827 1301Q784 1327 735 1337T624 1347Q529 1347 422 1313T220 1217H210V1426Q281 1461 399 1490T629 1520Q738 1520 821 1500T971 1436Q1043 1388
1080 1320T1117 1161Q1117 1037 1030 945T823 828V814Q871 806 933 781T1038 717Z" />
<glyph unicode="4" glyph-name="four" horiz-adv-x="1302" d="M1203 419H982V0H790V419H77V649L798 1489H982V579H1203V419ZM790 579V1251L213 579H790Z" />
<glyph unicode="5" glyph-name="five" horiz-adv-x="1302" d="M1157 473Q1157 369 1119 274T1015 114Q943 44 844 7T613 -31Q491 -31 378 -6T187 56V267H201Q283 215 393 179T609 142Q680 142 746 162T865 232Q909 275 931 335T954 474Q954 551 928 604T854 689Q802
727 728 742T561 758Q473 758 392 746T251 722V1489H1147V1314H444V918Q487 922 532 924T610 926Q731 926 822 906T989 833Q1069 778 1113 691T1157 473Z" />
<glyph unicode="6" glyph-name="six" horiz-adv-x="1302" d="M1191 483Q1191 256 1042 113T675 -31Q565 -31 475 3T316 104Q230 187 184 324T137 654Q137 852 179 1005T315 1277Q403 1390 542 1453T866 1517Q925 1517 965 1512T1046 1494V1303H1036Q1008 1318
952 1331T836 1345Q621 1345 493 1211T344 847Q428 898 509 924T698 951Q793 951 865 934T1014 863Q1102 802 1146 709T1191 483ZM988 475Q988 568 961 629T870 735Q824 767 768 777T651 787Q566 787 493 767T343 705Q341 683 340 663T339 611Q339 453 371 362T461
217Q507 173 560 153T677 132Q822 132 905 220T988 475Z" />
<glyph unicode="7" glyph-name="seven" horiz-adv-x="1302" d="M1173 1266L499 0H285L1002 1314H154V1489H1173V1266Z" />
<glyph unicode="8" glyph-name="eight" horiz-adv-x="1302" d="M1180 415Q1180 222 1030 94T651 -34Q409 -34 266 91T122 411Q122 535 194 635T397 795V801Q277 865 220 941T162 1131Q162 1299 300 1411T651 1523Q874 1523 1007 1416T1140 1144Q1140 1043 1077
946T892 793V787Q1032 727 1106 639T1180 415ZM943 1142Q943 1249 861 1312T650 1376Q524 1376 444 1316T363 1154Q363 1082 403 1030T526 936Q563 918 632 889T768 841Q867 907 905 978T943 1142ZM974 396Q974 488 934 543T775 655Q728 677 672 696T523 749Q433
700 379 616T324 426Q324 291 417 203T653 115Q799 115 886 190T974 396Z" />
<glyph unicode="9" glyph-name="nine" horiz-adv-x="1302" d="M1167 834Q1167 639 1123 480T988 209Q897 95 760 33T438 -29Q386 -29 340 -24T258 -6V185H268Q297 170 350 157T468 143Q689 143 814 275T960 641Q867 585 785 561T606 537Q514 537 440 555T290 625Q202
686 158 780T113 1005Q113 1233 263 1376T629 1519Q737 1519 829 1486T990 1385Q1075 1302 1121 1172T1167 834ZM965 877Q965 1032 933 1126T845 1272Q798 1317 744 1336T627 1356Q483 1356 400 1266T316 1013Q316 918 343 858T434 753Q479 722 533 712T653 701Q731
701 811 722T961 783Q962 804 963 824T965 877Z" />
<glyph unicode=":" glyph-name="colon" horiz-adv-x="930" d="M585 832H346V1117H585V832ZM585 0H346V285H585V0Z" />
<glyph unicode=";" glyph-name="semicolon" horiz-adv-x="930" d="M585 832H346V1117H585V832ZM658 285L376 -370H230L404 285H658Z" />
<glyph unicode="&lt;" glyph-name="less" horiz-adv-x="1676" d="M1408 77L254 590V714L1408 1227V1047L498 652L1408 257V77Z" />
<glyph unicode="=" glyph-name="equal" horiz-adv-x="1676" d="M1431 782H245V942H1431V782ZM1431 362H245V522H1431V362Z" />
<glyph unicode="&gt;" glyph-name="greater" horiz-adv-x="1676" d="M1422 590L268 77V257L1178 652L268 1047V1227L1422 714V590Z" />
<glyph unicode="?" glyph-name="question" horiz-adv-x="1117" d="M1005 1139Q1005 1041 970 965T878 829Q822 772 749 722T594 625V400H415V705Q480 742 555 786T679 875Q737 927 769 982T801 1124Q801 1237 725 1292T527 1348Q419 1348 323 1314T170 1245H160V1449Q230
1476 337 1497T541 1519Q756 1519 880 1415T1005 1139ZM610 0H406V211H610V0Z" />
<glyph unicode="@" glyph-name="at" horiz-adv-x="2048" d="M1870 663Q1870 524 1830 394T1714 157H1274L1247 273Q1173 213 1105 181T949 149Q781 149 681 276T580 631Q580 858 703 993T997 1128Q1070 1128 1126 1112T1247 1062V1110H1406V268H1649Q1691 343
1712 455T1734 657Q1734 821 1689 955T1555 1185Q1467 1281 1337 1332T1042 1384Q882 1384 750 1326T522 1170Q426 1072 372 936T317 645Q317 480 369 344T516 110Q615 9 748 -42T1038 -94Q1124 -94 1215 -83T1391 -48V-190Q1294 -211 1210 -218T1037 -226Q851
-226 692 -163T419 15Q304 130 240 291T176 647Q176 832 243 991T426 1268Q542 1385 701 1452T1041 1519Q1237 1519 1391 1457T1651 1283Q1757 1171 1813 1014T1870 663ZM1245 408V926Q1182 955 1132 967T1025 980Q896 980 823 890T750 634Q750 471 808 388T989
304Q1056 304 1123 335T1245 408Z" />
<glyph unicode="A" glyph-name="A" horiz-adv-x="1400" d="M1374 0H1163L1017 415H373L227 0H26L568 1489H832L1374 0ZM956 585L695 1316L433 585H956Z" />
<glyph unicode="B" glyph-name="B" horiz-adv-x="1404" d="M1323 458Q1323 347 1281 262T1168 122Q1084 56 984 28T728 0H200V1489H641Q804 1489 885 1477T1040 1427Q1122 1384 1159 1317T1196 1155Q1196 1049 1142 975T998 855V847Q1149 816 1236 715T1323 458ZM990
1129Q990 1183 972 1220T914 1280Q867 1307 800 1313T634 1320H398V890H654Q747 890 802 899T904 939Q951 969 970 1016T990 1129ZM1117 450Q1117 540 1090 593T992 683Q944 708 876 715T709 723H398V169H660Q790 169 873 182T1009 232Q1065 271 1091 321T1117
450Z" />
<glyph unicode="C" glyph-name="C" horiz-adv-x="1430" d="M1350 108Q1295 84 1251 63T1134 19Q1073 0 1002 -13T844 -27Q682 -27 550 18T319 161Q223 256 169 402T115 743Q115 927 167 1072T317 1317Q412 1414 546 1465T845 1516Q965 1516 1084 1487T1350 1385V1150H1335Q1212
1253 1091 1300T832 1347Q719 1347 629 1311T467 1197Q398 1122 360 1008T321 743Q321 586 363 473T473 289Q543 215 636 180T834 144Q977 144 1102 193T1336 340H1350V108Z" />
<glyph unicode="D" glyph-name="D" horiz-adv-x="1578" d="M1458 743Q1458 540 1370 375T1134 119Q1032 56 907 28T576 0H200V1489H572Q790 1489 918 1458T1136 1371Q1288 1276 1373 1118T1458 743ZM1251 746Q1251 921 1190 1041T1008 1230Q920 1280 821 1299T584
1319H398V170H584Q727 170 833 191T1029 269Q1140 340 1195 456T1251 746Z" />
<glyph unicode="E" glyph-name="E" horiz-adv-x="1295" d="M1181 0H200V1489H1181V1313H398V905H1181V729H398V176H1181V0Z" />
<glyph unicode="F" glyph-name="F" horiz-adv-x="1177" d="M1151 1313H398V893H1045V717H398V0H200V1489H1151V1313Z" />
<glyph unicode="G" glyph-name="G" horiz-adv-x="1588" d="M1442 110Q1320 54 1176 13T896 -29Q722 -29 577 19T330 163Q227 260 171 405T115 746Q115 1103 323 1309T896 1516Q1023 1516 1155 1486T1441 1382V1147H1423Q1392 1171 1333 1210T1217 1275Q1148 1306
1061 1326T862 1347Q612 1347 467 1187T321 752Q321 463 473 303T887 142Q983 142 1078 161T1246 210V575H847V749H1442V110Z" />
<glyph unicode="H" glyph-name="H" horiz-adv-x="1539" d="M1339 0H1141V729H398V0H200V1489H398V905H1141V1489H1339V0Z" />
<glyph unicode="I" glyph-name="I" horiz-adv-x="862" d="M725 0H137V152H332V1337H137V1489H725V1337H530V152H725V0Z" />
<glyph unicode="J" glyph-name="J" horiz-adv-x="931" d="M746 387Q746 191 627 85T306 -21Q258 -21 178 -13T44 8V193H55Q96 179 156 164T279 149Q371 149 425 170T506 230Q533 270 540 328T548 462V1331H233V1489H746V387Z" />
<glyph unicode="K" glyph-name="K" horiz-adv-x="1419" d="M1397 0H1140L551 663L403 505V0H205V1489H403V712L1126 1489H1366L701 789L1397 0Z" />
<glyph unicode="L" glyph-name="L" horiz-adv-x="1140" d="M1142 0H200V1489H398V176H1142V0Z" />
<glyph unicode="M" glyph-name="M" horiz-adv-x="1726" d="M1526 0H1328V1283L914 410H796L385 1283V0H200V1489H470L867 660L1251 1489H1526V0Z" />
<glyph unicode="N" glyph-name="N" horiz-adv-x="1532" d="M1336 0H1091L385 1332V0H200V1489H507L1151 273V1489H1336V0Z" />
<glyph unicode="O" glyph-name="O" horiz-adv-x="1612" d="M1310 1318Q1401 1218 1449 1073T1498 744Q1498 560 1449 415T1310 172Q1218 71 1093 20T806 -31Q649 -31 521 21T302 172Q212 271 164 415T115 744Q115 926 163 1070T303 1318Q391 1416 521 1468T806
1520Q966 1520 1093 1468T1310 1318ZM1292 744Q1292 1034 1162 1191T807 1349Q580 1349 451 1192T321 744Q321 451 453 296T807 140Q1029 140 1160 295T1292 744Z" />
<glyph unicode="P" glyph-name="P" horiz-adv-x="1235" d="M1174 1039Q1174 940 1140 856T1043 709Q966 632 861 594T596 555H398V0H200V1489H604Q738 1489 831 1467T996 1396Q1081 1339 1127 1254T1174 1039ZM968 1034Q968 1111 941 1168T859 1261Q811 1292 750
1305T594 1319H398V724H565Q685 724 760 745T882 814Q929 862 948 915T968 1034Z" />
<glyph unicode="Q" glyph-name="Q" horiz-adv-x="1612" d="M1528 -365Q1468 -380 1410 -386T1290 -393Q1116 -393 1011 -298T896 -24Q872 -28 850 -29T806 -31Q649 -31 521 21T302 172Q212 271 164 415T115 744Q115 926 163 1070T303 1318Q391 1416 521 1468T806
1520Q966 1520 1093 1468T1310 1318Q1401 1218 1449 1073T1498 744Q1498 471 1387 284T1087 22Q1091 -92 1141 -155T1323 -218Q1364 -218 1420 -206T1501 -183H1528V-365ZM1292 744Q1292 1034 1162 1191T807 1349Q580 1349 451 1192T321 744Q321 451 453 296T807
140Q1029 140 1160 295T1292 744Z" />
<glyph unicode="R" glyph-name="R" horiz-adv-x="1424" d="M1432 0H1175L677 592H398V0H200V1489H617Q752 1489 842 1472T1004 1409Q1085 1358 1130 1281T1176 1084Q1176 923 1095 815T872 651L1432 0ZM969 1070Q969 1134 947 1183T872 1267Q829 1296 770 1307T631
1319H398V757H598Q692 757 762 773T881 835Q926 877 947 931T969 1070Z" />
<glyph unicode="S" glyph-name="S" horiz-adv-x="1400" d="M1282 425Q1282 338 1242 253T1128 109Q1048 45 942 9T685 -27Q524 -27 396 3T134 92V340H148Q261 246 409 195T687 144Q871 144 973 213T1076 397Q1076 496 1028 543T880 616Q805 636 718 649T532 682Q334
724 239 825T143 1090Q143 1277 301 1396T702 1516Q859 1516 990 1486T1222 1412V1178H1208Q1123 1250 985 1297T701 1345Q542 1345 446 1279T349 1109Q349 1016 397 963T566 882Q630 868 748 848T948 807Q1114 763 1198 674T1282 425Z" />
<glyph unicode="T" glyph-name="T" horiz-adv-x="1262" d="M1262 1313H730V0H532V1313H0V1489H1262V1313Z" />
<glyph unicode="U" glyph-name="U" horiz-adv-x="1499" d="M1321 598Q1321 436 1286 316T1169 115Q1092 39 989 4T749 -31Q609 -31 505 6T330 115Q249 197 214 313T178 598V1489H376V588Q376 467 392 397T448 270Q492 205 567 172T749 139Q856 139 931 171T1051
270Q1090 327 1106 400T1123 583V1489H1321V598Z" />
<glyph unicode="V" glyph-name="V" horiz-adv-x="1400" d="M1374 1489L832 0H568L26 1489H238L705 179L1172 1489H1374Z" />
<glyph unicode="W" glyph-name="W" horiz-adv-x="2025" d="M1933 1489L1546 0H1323L1010 1236L704 0H486L92 1489H295L608 251L916 1489H1117L1428 239L1739 1489H1933Z" />
<glyph unicode="X" glyph-name="X" horiz-adv-x="1403" d="M1336 1489L822 753L1335 0H1106L700 613L284 0H68L587 744L80 1489H308L709 884L1119 1489H1336Z" />
<glyph unicode="Y" glyph-name="Y" horiz-adv-x="1260" d="M1254 1489L730 653V0H532V632L6 1489H225L632 823L1043 1489H1254Z" />
<glyph unicode="Z" glyph-name="Z" horiz-adv-x="1403" d="M1288 0H126V184L1039 1313H160V1489H1266V1310L344 176H1288V0Z" />
<glyph unicode="[" glyph-name="bracketleft" horiz-adv-x="930" d="M759 -392H239V1556H759V1413H413V-249H759V-392Z" />
<glyph unicode="\" glyph-name="backslash" horiz-adv-x="930" d="M960 -304H787L70 1556H246L960 -304Z" />
<glyph unicode="]" glyph-name="bracketright" horiz-adv-x="930" d="M691 -392H171V-249H517V1413H171V1556H691V-392Z" />
<glyph unicode="^" glyph-name="asciicircum" horiz-adv-x="1676" d="M1490 684H1292L837 1311L383 682H186L775 1489H901L1490 684Z" />
<glyph unicode="_" glyph-name="underscore" horiz-adv-x="1302" d="M1306 -300H-4V-180H1306V-300Z" />
<glyph unicode="`" glyph-name="grave" horiz-adv-x="1302" d="M762 1302H613L340 1676H583L762 1302Z" />
<glyph unicode="a" glyph-name="a" horiz-adv-x="1230" d="M1053 0H866V119Q841 102 799 72T716 23Q669 0 608 -15T465 -31Q314 -31 209 69T104 324Q104 451 158 529T314 653Q416 698 559 714T866 738V767Q866 831 844 873T779 939Q739 962 683 970T566 978Q492
978 401 959T213 902H203V1093Q258 1108 362 1126T567 1144Q685 1144 772 1125T924 1058Q987 1012 1020 939T1053 758V0ZM866 275V586Q780 581 664 571T479 542Q398 519 348 471T298 337Q298 241 356 193T533 144Q632 144 714 182T866 275Z" />
<glyph unicode="b" glyph-name="b" horiz-adv-x="1276" d="M1168 567Q1168 427 1129 315T1022 127Q951 48 866 9T679 -31Q584 -31 513 -9T373 52L361 0H185V1556H373V1000Q452 1065 541 1106T741 1148Q939 1148 1053 996T1168 567ZM974 562Q974 762 908 865T695
969Q613 969 529 934T373 842V202Q453 166 510 152T641 138Q797 138 885 240T974 562Z" />
<glyph unicode="c" glyph-name="c" horiz-adv-x="1067" d="M1011 70Q917 25 833 0T653 -25Q532 -25 431 10T258 118Q185 190 145 300T105 557Q105 831 255 987T653 1143Q749 1143 841 1116T1011 1050V841H1001Q915 908 824 944T645 980Q485 980 393 873T300 557Q300
355 390 247T645 138Q702 138 761 153T867 192Q908 213 944 236T1001 277H1011V70Z" />
<glyph unicode="d" glyph-name="d" horiz-adv-x="1276" d="M1091 0H903V117Q822 47 734 8T543 -31Q343 -31 226 123T108 550Q108 692 148 803T258 992Q326 1068 416 1108T604 1148Q692 1148 760 1130T903 1072V1556H1091V0ZM903 275V916Q827 950 767 963T636 976Q478
976 390 866T302 554Q302 355 370 252T588 148Q668 148 750 183T903 275Z" />
<glyph unicode="e" glyph-name="e" horiz-adv-x="1220" d="M1120 539H297Q297 436 328 360T413 234Q465 186 536 162T694 138Q808 138 923 183T1088 273H1098V68Q1003 28 904 1T696 -26Q418 -26 262 124T106 552Q106 826 255 987T649 1148Q875 1148 997 1016T1120
641V539ZM937 683Q936 831 863 912T639 993Q488 993 399 904T297 683H937Z" />
<glyph unicode="f" glyph-name="f" horiz-adv-x="720" d="M786 1374H776Q745 1383 695 1392T607 1402Q486 1402 432 1349T377 1155V1117H716V959H383V0H195V959H68V1117H195V1154Q195 1353 294 1459T580 1566Q643 1566 693 1560T786 1546V1374Z" />
<glyph unicode="g" glyph-name="g" horiz-adv-x="1276" d="M1091 127Q1091 -157 962 -290T565 -423Q476 -423 392 -411T225 -375V-183H235Q281 -201 381 -227T581 -254Q677 -254 740 -231T838 -167Q873 -128 888 -73T903 50V152Q818 84 741 51T543 17Q343 17 226
161T108 569Q108 713 148 817T259 998Q324 1069 417 1108T602 1148Q699 1148 764 1129T903 1069L915 1117H1091V127ZM903 307V916Q828 950 764 964T635 979Q480 979 391 875T302 573Q302 385 368 288T587 191Q669 191 751 222T903 307Z" />
<glyph unicode="h" glyph-name="h" horiz-adv-x="1296" d="M1119 0H931V636Q931 713 922 780T889 886Q864 928 817 948T695 969Q618 969 534 931T373 834V0H185V1556H373V993Q461 1066 555 1107T748 1148Q929 1148 1024 1039T1119 725V0Z" />
<glyph unicode="i" glyph-name="i" horiz-adv-x="562" d="M387 1304H175V1499H387V1304ZM375 0H187V1117H375V0Z" />
<glyph unicode="j" glyph-name="j" horiz-adv-x="705" d="M533 1304H321V1499H533V1304ZM521 -27Q521 -223 421 -323T153 -423Q113 -423 48 -415T-62 -395V-216H-52Q-24 -227 23 -241T116 -255Q188 -255 232 -235T298 -175Q320 -135 326 -79T333 59V959H100V1117H521V-27Z"
/>
<glyph unicode="k" glyph-name="k" horiz-adv-x="1212" d="M1199 0H951L503 489L381 373V0H193V1556H381V558L924 1117H1161L642 601L1199 0Z" />
<glyph unicode="l" glyph-name="l" horiz-adv-x="562" d="M375 0H187V1556H375V0Z" />
<glyph unicode="m" glyph-name="m" horiz-adv-x="1992" d="M1815 0H1627V636Q1627 708 1621 775T1593 882Q1570 925 1527 947T1403 969Q1324 969 1245 930T1087 829Q1090 806 1092 776T1094 715V0H906V636Q906 710 900 776T872 883Q849 926 806 947T682 969Q605
969 528 931T373 834V0H185V1117H373V993Q461 1066 548 1107T735 1148Q849 1148 928 1100T1047 967Q1161 1063 1255 1105T1456 1148Q1640 1148 1727 1037T1815 725V0Z" />
<glyph unicode="n" glyph-name="n" horiz-adv-x="1296" d="M1119 0H931V636Q931 713 922 780T889 886Q864 928 817 948T695 969Q618 969 534 931T373 834V0H185V1117H373V993Q461 1066 555 1107T748 1148Q929 1148 1024 1039T1119 725V0Z" />
<glyph unicode="o" glyph-name="o" horiz-adv-x="1243" d="M1137 558Q1137 285 997 127T622 -31Q385 -31 246 127T106 558Q106 831 245 989T622 1148Q857 1148 997 990T1137 558ZM943 558Q943 775 858 880T622 986Q469 986 385 881T300 558Q300 348 385 240T622
131Q772 131 857 238T943 558Z" />
<glyph unicode="p" glyph-name="p" horiz-adv-x="1276" d="M1168 572Q1168 436 1129 324T1019 133Q953 59 864 19T674 -22Q587 -22 517 -3T373 56V-412H185V1117H373V1000Q448 1063 541 1105T741 1148Q943 1148 1055 996T1168 572ZM974 567Q974 769 905 869T693
969Q612 969 530 934T373 842V209Q453 173 510 160T641 147Q798 147 886 253T974 567Z" />
<glyph unicode="q" glyph-name="q" horiz-adv-x="1276" d="M1091 -412H903V126Q816 51 730 15T544 -22Q345 -22 227 131T108 555Q108 699 149 809T259 995Q325 1068 414 1108T602 1148Q692 1148 761 1128T903 1069L915 1117H1091V-412ZM903 284V916Q825 951 765
965T635 979Q472 979 387 869T302 564Q302 368 370 263T586 157Q668 157 750 192T903 284Z" />
<glyph unicode="r" glyph-name="r" horiz-adv-x="874" d="M882 912H872Q830 922 791 926T697 931Q610 931 529 893T373 793V0H185V1117H373V952Q485 1042 570 1079T745 1117Q794 1117 816 1115T882 1105V912Z" />
<glyph unicode="s" glyph-name="s" horiz-adv-x="1067" d="M983 322Q983 169 857 71T511 -27Q387 -27 284 2T110 67V278H120Q209 211 318 172T527 132Q651 132 721 172T791 298Q791 364 753 398Q715 432 607 456Q567 465 503 477T385 503Q238 542 177 617T115
803Q115 872 143 933T230 1042Q286 1089 372 1116T566 1144Q666 1144 768 1120T939 1060V859H929Q857 912 754 948T552 985Q449 985 378 946T307 828Q307 759 350 724Q392 689 486 667Q538 655 602 643T710 621Q841 591 912 518Q983 444 983 322Z" />
<glyph unicode="t" glyph-name="t" horiz-adv-x="807" d="M765 10Q712 -4 650 -13T538 -22Q367 -22 278 70T189 365V959H62V1117H189V1438H377V1117H765V959H377V450Q377 362 381 313T409 220Q431 180 469 162T587 143Q633 143 683 156T755 179H765V10Z" />
<glyph unicode="u" glyph-name="u" horiz-adv-x="1296" d="M1111 0H923V124Q828 49 741 9T549 -31Q373 -31 275 76T177 392V1117H365V481Q365 396 373 336T407 232Q434 188 477 168T602 148Q675 148 761 186T923 283V1117H1111V0Z" />
<glyph unicode="v" glyph-name="v" horiz-adv-x="1212" d="M1151 1117L699 0H510L61 1117H265L611 228L954 1117H1151Z" />
<glyph unicode="w" glyph-name="w" horiz-adv-x="1676" d="M1590 1117L1299 0H1125L838 861L553 0H380L86 1117H282L487 252L766 1117H921L1207 252L1401 1117H1590Z" />
<glyph unicode="x" glyph-name="x" horiz-adv-x="1212" d="M1152 0H915L598 429L279 0H60L496 557L64 1117H301L616 695L932 1117H1152L713 567L1152 0Z" />
<glyph unicode="y" glyph-name="y" horiz-adv-x="1212" d="M1151 1117L499 -412H298L506 54L61 1117H265L608 289L954 1117H1151Z" />
<glyph unicode="z" glyph-name="z" horiz-adv-x="1076" d="M995 0H93V139L744 960H107V1117H978V983L324 159H995V0Z" />
<glyph unicode="{" glyph-name="braceleft" horiz-adv-x="1300" d="M1113 -392H963Q784 -392 673 -293T561 -5V144Q561 313 478 408T224 504H173V660H224Q395 660 478 755T561 1020V1169Q561 1357 672 1456T963 1556H1113V1418H999Q863 1418 802 1355T740 1152V977Q740
838 663 744T449 594V570Q586 515 663 421T740 187V12Q740 -128 801 -191T999 -254H1113V-392Z" />
<glyph unicode="|" glyph-name="bar" horiz-adv-x="930" d="M552 -392H378V1556H552V-392Z" />
<glyph unicode="}" glyph-name="braceright" horiz-adv-x="1300" d="M1127 504H1076Q905 504 822 409T739 144V-5Q739 -193 628 -292T337 -392H187V-254H301Q437 -254 498 -191T560 12V187Q560 326 637 420T851 570V594Q714 649 637 743T560 977V1152Q560 1292
499 1355T301 1418H187V1556H337Q516 1556 627 1457T739 1169V1020Q739 851 822 756T1076 660H1127V504Z" />
<glyph unicode="~" glyph-name="asciitilde" horiz-adv-x="1676" d="M1489 927Q1487 828 1467 732T1401 561Q1355 484 1290 440T1125 396Q1031 396 958 435T801 577Q699 702 653 734T557 766Q463 766 413 679T354 395H187Q189 495 209 589T274 761Q317 835 386
880T551 926Q644 926 717 888T876 745Q956 647 1007 602T1119 556Q1222 556 1270 657T1322 927H1489Z" />
</font>
<font id="Italic" horiz-adv-x="1041" ><font-face
    font-family="PlotFont"
    font-weight="normal"
    font-style="italic"
    units-per-em="2048"
    panose-1="2 11 6 4 3 5 4 11 2 4"
    ascent="2059"
    descent="-430"
    alphabetic="0" />
<missing-glyph horiz-adv-x="2048" d="M256 0V1536H1792V0H256ZM384 128H1664V1408H384V128Z" />
<glyph unicode=" " glyph-name="space" horiz-adv-x="720" />
<glyph unicode="!" glyph-name="exclam" horiz-adv-x="806" d="M730 1489L455 410H285L506 1489H730ZM376 0H172L221 211H425L376 0Z" />
<glyph unicode="&quot;" glyph-name="quotedbl" horiz-adv-x="940" d="M1005 1556L823 977H691L787 1556H1005ZM619 1556L437 977H305L401 1556H619Z" />
<glyph unicode="#" glyph-name="numbersign" horiz-adv-x="1676" d="M1555 932H1222L1070 556H1378L1357 421H1014L843 0H714L885 421H615L444 0H315L486 421H188L209 556H542L694 932H386L407 1067H750L922 1489H1051L879 1067H1149L1321 1489H1450L1278 1067H1576L1555
932ZM1096 934H822L668 554H942L1096 934Z" />
<glyph unicode="$" glyph-name="dollar" horiz-adv-x="1302" d="M597 1L513 -361H395L477 -4Q353 -3 246 24T60 91L103 273H119Q140 254 171 234T258 192Q302 174 367 158T511 139L612 580Q580 587 552 594T491 610Q359 646 299 719T239 886Q239 1050 381 1166T773
1304L836 1576H954L892 1306Q993 1303 1088 1279T1249 1225L1206 1045H1192Q1123 1098 1043 1129T859 1166L759 727Q782 722 812 715T873 699Q1000 665 1066 599T1132 435Q1132 257 991 140T597 1ZM645 744L741 1165Q594 1154 515 1089T435 919Q435 855 481 813T645
744ZM935 389Q935 460 885 500T725 561L629 141Q773 151 854 211T935 389Z" />
<glyph unicode="%" glyph-name="percent" horiz-adv-x="2204" d="M489 634Q341 634 265 708T189 930Q189 1192 314 1354T657 1517Q804 1517 880 1442T956 1221Q956 969 834 802T489 634ZM722 915Q752 983 765 1061T779 1223Q779 1305 745 1347T631 1389Q559 1389
508 1347T424 1237Q395 1177 380 1095T365 930Q365 849 398 806T515 762Q587 762 639 804T722 915ZM1619 -29Q1471 -29 1395 45T1319 267Q1319 529 1444 691T1787 854Q1934 854 2010 779T2086 558Q2086 306 1964 139T1619 -29ZM1852 252Q1883 320 1896 398T1909
560Q1909 642 1875 684T1761 726Q1689 726 1638 684T1554 574Q1525 514 1510 432T1495 267Q1495 186 1528 143T1645 99Q1717 99 1769 141T1852 252ZM1743 1489L701 0H534L1576 1489H1743Z" />
<glyph unicode="&amp;" glyph-name="ampersand" horiz-adv-x="1488" d="M1437 0H1203L1021 221Q888 84 761 27T498 -31Q317 -31 203 68T88 327Q88 431 123 511T217 659Q272 721 344 768T484 848Q419 903 374 970T328 1117Q328 1191 356 1258T449 1389Q508 1446
599 1483T806 1520Q963 1520 1058 1443T1153 1241Q1153 1200 1137 1140T1078 1025Q1032 965 954 914T746 827L1053 460Q1104 543 1136 662T1191 909H1392L1372 813Q1348 698 1291 582T1143 354L1437 0ZM894 1047Q922 1088 934 1135T947 1233Q947 1311 895 1356T772
1402Q665 1402 597 1327T529 1146Q529 1090 561 1034T676 909Q758 932 810 966T894 1047ZM945 311L563 775Q536 762 486 727T401 654Q361 610 333 544T305 394Q305 271 375 198T577 125Q673 125 767 170T945 311Z" />
<glyph unicode="&apos;" glyph-name="quotesingle" horiz-adv-x="550" d="M619 1556L437 977H301L397 1556H619Z" />
<glyph unicode="(" glyph-name="parenleft" horiz-adv-x="930" d="M560 -412H348Q258 -266 200 -96T142 259Q142 449 188 625T323 973Q408 1135 526 1280T788 1556H1014V1546Q900 1462 777 1333T554 1048Q453 889 390 698T326 294Q326 77 389 -101T560 -402V-412Z" />
<glyph unicode=")" glyph-name="parenright" horiz-adv-x="930" d="M792 885Q792 696 745 516T611 171Q524 7 405 -139T146 -412H-80V-402Q35 -316 157 -191T380 96Q494 280 551 465T608 850Q608 1063 546 1242T374 1546V1556H586Q675 1411 733 1242T792 885Z" />
<glyph unicode="*" glyph-name="asterisk" horiz-adv-x="1302" d="M1255 889L1195 785L831 1002L837 636H714L720 1002L356 784L295 888L680 1096L295 1304L356 1408L721 1192L714 1556H837L830 1193L1195 1407L1255 1303L872 1098L1255 889Z" />
<glyph unicode="+" glyph-name="plus" horiz-adv-x="1676" d="M1509 572H964V27H798V572H253V732H798V1277H964V732H1509V572Z" />
<glyph unicode="," glyph-name="comma" horiz-adv-x="745" d="M521 285L87 -370H-59L265 285H521Z" />
<glyph unicode="-" glyph-name="hyphen" horiz-adv-x="930" d="M778 561H154L196 742H820L778 561Z" />
<glyph unicode="." glyph-name="period" horiz-adv-x="745" d="M364 0H123L189 285H430L364 0Z" />
<glyph unicode="/" glyph-name="slash" horiz-adv-x="930" d="M1042 1556L-7 -304H-186L860 1556H1042Z" />
<glyph unicode="0" glyph-name="zero" horiz-adv-x="1302" d="M1256 1082Q1256 884 1183 616T1000 204Q907 83 795 26T534 -31Q331 -31 232 77T133 406Q133 585 202 857T389 1284Q479 1404 594 1461T856 1519Q1058 1519 1157 1411T1256 1082ZM1054 1085Q1054 1219
1004 1290T823 1361Q727 1361 654 1319T519 1171Q449 1048 392 805T335 403Q335 269 385 198T566 127Q657 127 735 171T870 317Q940 442 997 685T1054 1085Z" />
<glyph unicode="1" glyph-name="one" horiz-adv-x="1302" d="M963 0H155L189 145H495L729 1157H419L448 1286Q621 1286 716 1334T844 1494H1000L689 145H997L963 0Z" />
<glyph unicode="2" glyph-name="two" horiz-adv-x="1302" d="M1043 0H34L81 209Q222 312 320 384T558 568Q802 763 902 896T1003 1156Q1003 1254 934 1304T755 1354Q666 1354 552 1321T327 1224H317L357 1427Q436 1463 559 1491T795 1520Q996 1520 1105 1433T1214
1196Q1214 1035 1122 892T800 557Q663 444 519 338T280 164H1080L1043 0Z" />
<glyph unicode="3" glyph-name="three" horiz-adv-x="1302" d="M952 131Q864 54 750 12T484 -31Q363 -31 250 -1T58 72L105 264H120Q189 212 293 174T513 135Q693 135 808 242T923 520Q923 625 850 677T623 729H528L567 888H662Q831 888 939 965T1047 1176Q1047
1260 983 1307T792 1354Q688 1354 570 1316T361 1224H351L394 1426Q474 1461 597 1490T832 1520Q1029 1520 1142 1442T1256 1227Q1256 1079 1147 965T870 819V809Q909 801 956 780T1040 725Q1078 691 1103 639T1129 516Q1129 407 1082 306T952 131Z" />
<glyph unicode="4" glyph-name="four" horiz-adv-x="1302" d="M1175 422H954L856 0H662L760 422H48L100 649L1014 1489H1200L989 574H1210L1175 422ZM795 574L951 1247L221 574H795Z" />
<glyph unicode="5" glyph-name="five" horiz-adv-x="1302" d="M979 145Q891 62 774 16T499 -31Q377 -31 269 -1T90 65L130 259H144Q206 212 311 174T529 135Q715 135 829 243T943 526Q943 594 917 639T847 712Q802 740 741 752T611 764Q523 764 435 751T284 726L460
1489H1353L1314 1321H615L521 911Q562 917 601 920T680 923Q905 923 1030 826T1156 562Q1156 442 1110 334T979 145Z" />
<glyph unicode="6" glyph-name="six" horiz-adv-x="1302" d="M595 -31Q376 -31 255 104T134 475Q134 691 195 877T374 1209Q490 1350 662 1433T1049 1517Q1112 1517 1154 1510T1224 1494L1189 1317H1179Q1156 1328 1101 1340T986 1352Q772 1352 605 1213T380 850Q467
899 566 927T763 955Q855 955 930 932T1066 859Q1130 805 1161 731T1192 561Q1192 315 1023 142T595 -31ZM984 539Q984 665 910 731T689 798Q613 798 527 775T356 708Q346 665 340 599T333 469Q333 372 358 306T421 202Q461 161 512 143T619 125Q781 125 882 239T984
539Z" />
<glyph unicode="7" glyph-name="seven" horiz-adv-x="1302" d="M1333 1266L377 0H150L1167 1321H319L357 1489H1384L1333 1266Z" />
<glyph unicode="8" glyph-name="eight" horiz-adv-x="1302" d="M1003 128Q920 54 811 10T556 -34Q342 -34 217 69T91 335Q91 486 182 606T447 799V804Q357 858 312 925T267 1079Q267 1259 433 1391T838 1523Q1035 1523 1149 1433T1264 1204Q1264 1084 1182 970T943
790V784Q1054 732 1111 658T1169 472Q1169 385 1125 291T1003 128ZM1062 1179Q1062 1266 993 1324T808 1383Q668 1383 571 1308T474 1118Q474 1061 506 1014T603 932Q640 913 699 887T828 838Q953 912 1007 994T1062 1179ZM869 219Q913 266 935 326T958 447Q958
515 922 565T799 659Q756 680 704 699T564 752Q437 690 369 588T301 371Q301 259 376 184T577 108Q679 108 752 139T869 219Z" />
<glyph unicode="9" glyph-name="nine" horiz-adv-x="1302" d="M1248 1013Q1248 801 1185 608T1005 276Q884 132 715 52T333 -29Q278 -29 235 -24T158 -6L193 171H203Q227 160 279 148T396 136Q610 136 778 277T1002 638Q903 585 816 559T619 533Q531 533 453 556T316
629Q257 678 224 751T190 927Q190 1174 362 1346T788 1519Q1009 1519 1128 1383T1248 1013ZM1049 1019Q1049 1114 1025 1179T961 1286Q922 1326 871 1344T763 1363Q594 1363 496 1244T398 949Q398 823 472 757T693 690Q769 690 856 713T1026 780Q1037 832 1043
886T1049 1019Z" />
<glyph unicode=":" glyph-name="colon" horiz-adv-x="930" d="M649 832H408L474 1117H715L649 832ZM457 0H216L282 285H523L457 0Z" />
<glyph unicode=";" glyph-name="semicolon" horiz-adv-x="930" d="M649 832H408L474 1117H715L649 832ZM603 285L169 -370H23L347 285H603Z" />
<glyph unicode="&lt;" glyph-name="less" horiz-adv-x="1676" d="M1451 77L297 590V714L1451 1227V1047L541 652L1451 257V77Z" />
<glyph unicode="=" glyph-name="equal" horiz-adv-x="1676" d="M1474 782H288V942H1474V782ZM1474 362H288V522H1474V362Z" />
<glyph unicode="&gt;" glyph-name="greater" horiz-adv-x="1676" d="M1465 590L311 77V257L1221 652L311 1047V1227L1465 714V590Z" />
<glyph unicode="?" glyph-name="question" horiz-adv-x="1117" d="M971 846Q895 777 801 722T600 617L551 400H372L442 705Q517 740 618 792T776 892Q856 958 893 1024T930 1176Q930 1263 866 1309T695 1355Q599 1355 495 1325T314 1252H304L349 1447Q423 1474
534 1496T742 1519Q931 1519 1035 1436T1139 1214Q1139 1098 1094 1007T971 846ZM474 0H270L319 211H523L474 0Z" />
<glyph unicode="@" glyph-name="at" horiz-adv-x="2048" d="M1659 157H1198V273Q1119 214 1046 182T888 149Q754 149 676 235T597 483Q597 631 644 749T767 953Q838 1034 937 1081T1128 1128Q1201 1128 1264 1111T1382 1062L1393 1110H1552L1356 268H1614Q1698
380 1742 545T1786 835Q1786 1102 1632 1246T1202 1391Q1025 1391 867 1318T590 1120Q474 998 405 832T335 488Q335 219 496 59T938 -101Q1024 -101 1124 -88T1300 -54L1274 -189Q1177 -209 1101 -217T915 -226Q587 -226 390 -39T193 461Q193 678 276 871T499 1208Q636
1350 826 1434T1218 1519Q1550 1519 1737 1343T1924 855Q1924 662 1855 481T1659 157ZM1227 408L1351 935Q1296 963 1243 976T1128 989Q978 989 874 856T770 509Q770 408 814 353T958 297Q1026 297 1095 331T1227 408Z" />
<glyph unicode="A" glyph-name="A" horiz-adv-x="1398" d="M1261 0H1060L1010 419H368L124 0H-85L801 1489H1063L1261 0ZM988 581L895 1316L463 581H988Z" />
<glyph unicode="B" glyph-name="B" horiz-adv-x="1404" d="M1081 120Q984 55 878 28T617 0H70L413 1489H841Q1004 1489 1083 1478T1229 1427Q1284 1393 1311 1341T1339 1224Q1339 1095 1266 996T1064 843V835Q1184 808 1247 734T1311 544Q1311 417 1248 304T1081
120ZM1124 1169Q1124 1211 1110 1238T1070 1284Q1028 1312 965 1319T802 1327H576L474 885H734Q820 885 884 897T996 937Q1058 973 1091 1039T1124 1169ZM1102 530Q1102 586 1083 620T1015 685Q975 710 913 718T739 726H438L307 162H580Q713 162 796 176T941 228Q1020
275 1061 356T1102 530Z" />
<glyph unicode="C" glyph-name="C" horiz-adv-x="1430" d="M738 -27Q455 -27 294 119T133 535Q133 741 195 919T373 1231Q488 1363 656 1439T1031 1516Q1160 1516 1275 1485T1511 1385L1466 1161H1451Q1418 1194 1385 1222T1284 1285Q1229 1314 1153 1333T985
1353Q845 1353 728 1295T525 1131Q441 1029 393 883T345 572Q345 366 452 252T761 137Q856 137 941 158T1097 213Q1162 244 1214 278T1303 341H1317L1270 111Q1165 58 1029 16T738 -27Z" />
<glyph unicode="D" glyph-name="D" horiz-adv-x="1568" d="M1519 918Q1519 674 1395 456T1056 119Q924 48 786 24T473 0H71L415 1489H761Q923 1489 1056 1467T1301 1370Q1407 1299 1463 1185T1519 918ZM1310 901Q1310 1015 1270 1097T1147 1235Q1066 1289 974
1307T741 1326H576L306 163H513Q656 163 768 186T981 267Q1142 359 1226 532T1310 901Z" />
<glyph unicode="E" glyph-name="E" horiz-adv-x="1295" d="M1395 1489L1356 1320H573L477 900H1260L1221 732H438L308 169H1091L1052 0H71L414 1489H1395Z" />
<glyph unicode="F" glyph-name="F" horiz-adv-x="1177" d="M1328 1320H576L475 888H1122L1083 720H437L270 0H70L414 1489H1366L1328 1320Z" />
<glyph unicode="G" glyph-name="G" horiz-adv-x="1588" d="M787 -29Q479 -29 306 123T133 555Q133 761 196 936T381 1241Q501 1370 675 1443T1068 1516Q1199 1516 1329 1485T1596 1382L1551 1156H1533Q1422 1260 1292 1306T1011 1353Q846 1353 722 1288T513 1115Q430
1009 388 868T345 584Q345 369 462 252T810 135Q911 135 999 153T1166 201L1250 582H853L891 749H1487L1339 110Q1273 83 1220 62T1087 17Q1018 -3 945 -16T787 -29Z" />
<glyph unicode="H" glyph-name="H" horiz-adv-x="1539" d="M1553 1489L1210 0H1012L1181 732H438L269 0H71L414 1489H612L477 900H1220L1355 1489H1553Z" />
<glyph unicode="I" glyph-name="I" horiz-adv-x="862" d="M597 0H7L40 145H235L513 1344H318L351 1489H941L908 1344H713L435 145H630L597 0Z" />
<glyph unicode="J" glyph-name="J" horiz-adv-x="931" d="M709 387Q663 190 521 85T177 -21Q129 -21 51 -13T-78 8L-36 186H-25Q14 172 70 157T189 142Q280 142 340 165T434 229Q470 272 491 332T527 462L727 1338H403L438 1489H962L709 387Z" />
<glyph unicode="K" glyph-name="K" horiz-adv-x="1419" d="M1285 0H1051L592 665L388 492L275 0H75L419 1489H619L439 716L1314 1489H1566L749 776L1285 0Z" />
<glyph unicode="L" glyph-name="L" horiz-adv-x="1140" d="M1013 0H70L414 1489H614L309 169H1052L1013 0Z" />
<glyph unicode="M" glyph-name="M" horiz-adv-x="1726" d="M1398 0H1198L1492 1265L887 410H769L559 1304L257 0H70L414 1489H686L887 660L1467 1489H1742L1398 0Z" />
<glyph unicode="N" glyph-name="N" horiz-adv-x="1532" d="M1208 0H972L565 1332L257 0H70L414 1489H712L1084 273L1365 1489H1552L1208 0Z" />
<glyph unicode="O" glyph-name="O" horiz-adv-x="1612" d="M1563 962Q1563 768 1505 588T1335 271Q1221 130 1061 50T700 -31Q434 -31 284 114T134 528Q134 732 194 909T367 1225Q477 1359 639 1439T996 1520Q1261 1520 1412 1376T1563 962ZM1184 370Q1268 484
1311 624T1354 934Q1354 1138 1252 1247T965 1357Q822 1357 707 1292T509 1114Q429 1004 386 859T343 559Q343 353 445 243T733 132Q874 132 989 197T1184 370Z" />
<glyph unicode="P" glyph-name="P" horiz-adv-x="1235" d="M1095 709Q1003 633 890 596T616 558H399L270 0H70L414 1489H806Q942 1489 1031 1465T1177 1396Q1236 1351 1267 1287T1298 1131Q1298 1009 1245 900T1095 709ZM1086 1097Q1086 1148 1069 1192T1016 1264Q973
1297 915 1311T762 1326H577L436 719H614Q734 719 813 741T951 811Q1019 868 1052 939T1086 1097Z" />
<glyph unicode="Q" glyph-name="Q" horiz-adv-x="1612" d="M1184 369Q1267 483 1310 624T1353 934Q1353 1138 1251 1247T965 1357Q822 1357 707 1292T509 1114Q429 1004 387 859T344 559Q344 353 446 242T733 131Q874 131 989 196T1184 369ZM985 21Q983 2 981
-17T979 -47Q979 -152 1029 -190T1175 -228Q1224 -228 1276 -217T1362 -193H1389L1354 -365Q1292 -380 1233 -386T1112 -393Q959 -393 874 -317T788 -98Q788 -80 790 -63T794 -25Q773 -27 750 -28T700 -30Q434 -30 284 115T133 528Q133 726 193 906T367 1225Q476
1359 639 1439T996 1520Q1261 1520 1412 1376T1564 962Q1564 646 1410 383T985 21Z" />
<glyph unicode="R" glyph-name="R" horiz-adv-x="1424" d="M1093 1119Q1093 1172 1077 1208T1028 1271Q990 1302 935 1314T800 1326H576L443 752H653Q751 752 823 770T954 833Q1020 883 1056 958T1093 1119ZM1315 0H1082L690 595H407L270 0H70L413 1489H819Q955
1489 1040 1472T1188 1408Q1244 1367 1276 1309T1308 1164Q1308 978 1192 838T886 642L1315 0Z" />
<glyph unicode="S" glyph-name="S" horiz-adv-x="1400" d="M585 -27Q440 -27 309 3T52 97L100 324H114Q210 233 349 185T619 136Q832 136 945 220T1059 436Q1059 505 1019 551T900 619Q835 637 746 653T575 689Q418 724 332 809T246 1020Q246 1233 426 1374T893
1516Q1049 1516 1176 1484T1396 1407L1351 1194H1337Q1266 1259 1135 1306T858 1353Q676 1353 568 1273T459 1070Q459 1004 498 954T637 879Q701 864 807 843T985 802Q1127 763 1200 686T1274 492Q1274 394 1226 297T1092 131Q1000 57 877 15T585 -27Z" />
<glyph unicode="T" glyph-name="T" horiz-adv-x="1262" d="M1438 1320H907L602 0H402L707 1320H176L214 1489H1476L1438 1320Z" />
<glyph unicode="U" glyph-name="U" horiz-adv-x="1499" d="M1330 598Q1291 431 1231 314T1072 115Q980 41 873 5T620 -31Q385 -31 270 75T155 368Q155 431 163 485T185 598L391 1489H591L383 588Q371 541 364 483T356 391Q356 265 431 199T655 132Q762 132 843
165T984 264Q1038 326 1070 401T1127 583L1336 1489H1536L1330 598Z" />
<glyph unicode="V" glyph-name="V" horiz-adv-x="1398" d="M1571 1489L685 0H421L223 1489H429L592 181L1360 1489H1571Z" />
<glyph unicode="W" glyph-name="W" horiz-adv-x="2028" d="M2138 1489L1423 0H1194L1150 1233L572 0H352L291 1489H492L532 253L1115 1489H1316L1356 241L1943 1489H2138Z" />
<glyph unicode="X" glyph-name="X" horiz-adv-x="1403" d="M640 749L296 1489H512L782 894L1329 1489H1552L857 747L1205 0H988L715 602L160 0H-62L640 749Z" />
<glyph unicode="Y" glyph-name="Y" horiz-adv-x="1260" d="M1463 1489L750 653L599 0H399L545 632L213 1489H425L683 820L1246 1489H1463Z" />
<glyph unicode="Z" glyph-name="Z" horiz-adv-x="1403" d="M1164 0H2L43 182L1196 1320H323L362 1489H1476L1436 1317L273 169H1203L1164 0Z" />
<glyph unicode="[" glyph-name="bracketleft" horiz-adv-x="930" d="M540 -392H20L470 1556H990L959 1420H613L225 -256H571L540 -392Z" />
<glyph unicode="\" glyph-name="backslash" horiz-adv-x="930" d="M805 -304H638L249 1556H419L805 -304Z" />
<glyph unicode="]" glyph-name="bracketright" horiz-adv-x="930" d="M472 -392H-48L-18 -256H328L718 1420H372L402 1556H922L472 -392Z" />
<glyph unicode="^" glyph-name="asciicircum" horiz-adv-x="1676" d="M1540 684H1342L887 1311L433 682H236L825 1489H951L1540 684Z" />
<glyph unicode="_" glyph-name="underscore" horiz-adv-x="1302" d="M1136 -180L1108 -300H-202L-174 -180H1136Z" />
<glyph unicode="`" glyph-name="grave" horiz-adv-x="1302" d="M907 1302H762L565 1676H801L907 1302Z" />
<glyph unicode="a" glyph-name="a" horiz-adv-x="1230" d="M874 589Q720 583 601 566T403 515Q322 482 280 426T238 285Q238 213 287 175T439 137Q530 137 624 177T801 275L874 589ZM765 119Q738 103 692 74T597 23Q546 0 483 -15T338 -31Q205 -31 122 46T39 249Q39
382 97 473T271 623Q384 680 543 705T907 737Q913 765 917 785T921 828Q921 876 902 906T848 954Q813 972 767 978T664 985Q579 985 470 958T293 903H283L320 1091Q377 1106 487 1125T698 1144Q906 1144 1010 1079T1114 873Q1114 846 1110 816T1099 758L924 0H737L765
119Z" />
<glyph unicode="b" glyph-name="b" horiz-adv-x="1276" d="M1191 764Q1191 601 1140 453T1004 200Q915 90 805 30T562 -31Q473 -31 396 -8T257 55L232 0H56L415 1556H603L475 1000Q568 1065 657 1106T855 1148Q1018 1148 1104 1047T1191 764ZM882 315Q938 402
966 506T994 728Q994 847 942 911T776 976Q693 976 604 935T438 842L291 203Q355 169 415 150T560 131Q664 131 746 182T882 315Z" />
<glyph unicode="c" glyph-name="c" horiz-adv-x="1067" d="M540 -25Q434 -25 353 0T210 79Q151 131 119 210T87 394Q87 551 136 687T275 926Q362 1026 490 1084T766 1143Q864 1143 950 1116T1103 1052L1062 849H1051Q1031 867 1001 891T930 936Q889 958 839 972T725
987Q531 987 409 823T286 424Q286 283 358 207T565 131Q628 131 691 149T798 188Q847 211 889 237T950 276H961L921 71Q834 32 737 4T540 -25Z" />
<glyph unicode="d" glyph-name="d" horiz-adv-x="1276" d="M1322 1556L962 0H774L801 117Q674 30 597 0T428 -31Q270 -31 178 69T85 360Q85 521 135 664T271 916Q356 1023 472 1085T718 1148Q807 1148 882 1129T1022 1072L1134 1556H1322ZM986 916Q919 951 855
967T717 984Q613 984 532 934T392 797Q339 718 311 607T282 392Q282 270 334 206T505 141Q589 141 676 183T838 275L986 916Z" />
<glyph unicode="e" glyph-name="e" horiz-adv-x="1220" d="M960 680Q965 709 967 729T969 773Q969 880 911 940T723 1000Q581 1000 471 912T322 680H960ZM584 -26Q352 -26 220 83T88 402Q88 709 282 928T762 1148Q952 1148 1053 1054T1154 788Q1154 758 1146 693T1118
542H295Q289 513 287 485T284 433Q284 292 370 212T614 131Q724 131 840 174T1036 271H1047L1006 68Q956 50 916 35T814 5Q752 -10 704 -18T584 -26Z" />
<glyph unicode="f" glyph-name="f" horiz-adv-x="720" d="M965 1381H955Q926 1391 878 1400T792 1409Q669 1409 608 1347T515 1155L506 1117H845L809 967H476L258 0H68L286 967H159L195 1117H322L330 1154Q371 1350 490 1458T798 1566Q861 1566 912 1560T1004
1546L965 1381Z" />
<glyph unicode="g" glyph-name="g" horiz-adv-x="1273" d="M1217 1117L990 124Q924 -160 774 -291T355 -423Q269 -423 182 -410T21 -375L64 -188H74Q130 -213 225 -236T404 -259Q499 -259 565 -235T675 -168Q717 -126 743 -71T785 54L808 152Q707 84 630 51T433
17Q270 17 178 116T86 397Q86 542 133 678T266 921Q349 1024 465 1086T715 1148Q811 1148 886 1126T1018 1069L1041 1117H1217ZM983 916Q919 949 852 967T715 986Q617 986 537 942T398 818Q343 744 313 640T282 431Q282 313 336 249T509 184Q592 184 677 219T844
307L983 916Z" />
<glyph unicode="h" glyph-name="h" horiz-adv-x="1296" d="M1175 862Q1175 838 1171 797T1158 725L990 0H802L949 636Q961 689 967 728T974 807Q974 891 933 933T783 976Q707 976 616 934T437 834L244 0H56L415 1556H603L473 993Q580 1068 673 1108T866 1148Q1012
1148 1093 1075T1175 862Z" />
<glyph unicode="i" glyph-name="i" horiz-adv-x="562" d="M604 1499L559 1304H347L392 1499H604ZM504 1117L246 0H58L316 1117H504Z" />
<glyph unicode="j" glyph-name="j" horiz-adv-x="705" d="M707 1304H493L538 1499H752L707 1304ZM387 -27Q342 -221 228 -322T-57 -423Q-97 -423 -162 -415T-269 -395L-230 -224H-220Q-191 -237 -152 -249T-60 -262Q10 -262 57 -241T135 -176Q164 -134 183 -72T217
59L426 966H193L228 1117H651L387 -27Z" />
<glyph unicode="k" glyph-name="k" horiz-adv-x="1202" d="M1082 0H854L497 491L335 360L253 0H63L423 1556H613L381 556L1036 1117H1283L646 589L1082 0Z" />
<glyph unicode="l" glyph-name="l" horiz-adv-x="562" d="M606 1556L246 0H58L418 1556H606Z" />
<glyph unicode="m" glyph-name="m" horiz-adv-x="1993" d="M1872 870Q1872 837 1868 800T1854 725L1686 0H1498L1645 636Q1657 689 1664 734T1672 818Q1672 894 1634 935T1489 976Q1410 976 1322 932T1147 829Q1145 804 1141 772T1130 715L965 0H777L924 636Q937
698 945 737T953 818Q953 909 903 942T768 976Q708 976 634 946T437 834L244 0H56L314 1117H502L473 993Q578 1066 667 1107T856 1148Q969 1148 1039 1100T1133 967Q1265 1063 1370 1105T1577 1148Q1724 1148 1798 1075T1872 870Z" />
<glyph unicode="n" glyph-name="n" horiz-adv-x="1296" d="M1175 862Q1175 838 1171 797T1158 725L990 0H802L949 636Q961 689 967 728T974 807Q974 891 933 933T783 976Q707 976 616 934T437 834L244 0H56L314 1117H502L473 993Q580 1068 673 1108T866 1148Q1012
1148 1093 1075T1175 862Z" />
<glyph unicode="o" glyph-name="o" horiz-adv-x="1243" d="M1154 722Q1154 572 1108 434T978 194Q891 88 777 29T511 -31Q312 -31 201 82T89 396Q89 546 134 682T266 924Q349 1026 469 1087T733 1148Q926 1148 1040 1038T1154 722ZM848 300Q902 380 930 485T959
707Q959 847 892 919T703 991Q606 991 529 945T396 817Q342 738 313 632T284 412Q284 274 351 200T541 126Q637 126 715 172T848 300Z" />
<glyph unicode="p" glyph-name="p" horiz-adv-x="1276" d="M1191 764Q1191 598 1140 452T1003 204Q917 99 803 39T560 -22Q470 -22 395 -2T257 58L149 -412H-39L314 1117H502L475 1000Q568 1065 658 1106T857 1148Q1020 1148 1105 1047T1191 764ZM994 728Q994
847 942 911T776 976Q693 976 604 935T438 842L292 209Q357 174 416 157T559 140Q662 140 744 190T881 320Q938 404 966 507T994 728Z" />
<glyph unicode="q" glyph-name="q" horiz-adv-x="1276" d="M1220 1117L867 -412H679L804 126Q709 59 624 19T428 -22Q270 -22 178 73T85 360Q85 521 135 664T271 916Q356 1023 472 1085T718 1148Q807 1148 882 1129T1022 1072L1044 1117H1220ZM986 916Q919 951
855 968T717 985Q610 985 529 934T392 798Q339 719 311 608T282 392Q282 270 334 210T505 150Q589 150 677 192T840 284L986 916Z" />
<glyph unicode="r" glyph-name="r" horiz-adv-x="874" d="M958 919H948Q908 929 874 933T790 938Q696 938 604 896T426 793L246 0H56L311 1117H501L463 952Q596 1045 688 1081T866 1117Q915 1117 937 1115T1001 1105L958 919Z" />
<glyph unicode="s" glyph-name="s" horiz-adv-x="1067" d="M405 -27Q280 -27 182 4T17 71L59 272H69Q90 254 123 230T209 181Q256 158 316 142T446 125Q587 125 667 177T747 330Q747 383 706 411T588 458Q549 467 495 478T384 504Q267 537 211 599T155 752Q155
830 189 898T290 1023Q354 1077 453 1110T673 1144Q773 1144 872 1119T1035 1057L995 865H985Q969 878 937 900T854 945Q811 964 754 978T634 992Q509 992 431 940T353 796Q353 746 391 713T507 660Q556 648 609 638T713 615Q829 586 887 525T946 372Q946 295 910
222T804 94Q733 37 632 5T405 -27Z" />
<glyph unicode="t" glyph-name="t" horiz-adv-x="807" d="M894 1117L860 965H472L352 450Q342 411 334 361T326 280Q326 207 363 172T500 136Q541 136 597 150T674 172H684L649 10Q593 -4 530 -13T417 -22Q279 -22 204 38T128 230Q128 262 132 293T145 365L284
965H157L191 1117H318L393 1438H581L506 1117H894Z" />
<glyph unicode="u" glyph-name="u" horiz-adv-x="1296" d="M1240 1117L982 0H794L823 124Q716 51 624 10T428 -31Q284 -31 203 41T122 253Q122 287 126 319T139 392L306 1117H494L347 481Q338 442 330 392T322 313Q322 227 365 184T514 141Q588 141 683 184T860
283L1052 1117H1240Z" />
<glyph unicode="v" glyph-name="v" horiz-adv-x="1210" d="M1266 1117L556 0H369L178 1117H370L511 228L1059 1117H1266Z" />
<glyph unicode="w" glyph-name="w" horiz-adv-x="1676" d="M1705 1117L1186 0H1010L898 863L437 0H263L193 1117H385L414 253L870 1117H1027L1136 253L1508 1117H1705Z" />
<glyph unicode="x" glyph-name="x" horiz-adv-x="1212" d="M505 565L193 1117H404L634 691L1050 1117H1282L711 554L1024 0H812L581 428L162 0H-69L505 565Z" />
<glyph unicode="y" glyph-name="y" horiz-adv-x="1210" d="M258 -412H51L376 65L174 1117H367L525 286L1059 1117H1264L258 -412Z" />
<glyph unicode="z" glyph-name="z" horiz-adv-x="1076" d="M871 0H-31L1 139L831 967H192L227 1117H1102L1071 983L237 150H906L871 0Z" />
<glyph unicode="{" glyph-name="braceleft" horiz-adv-x="1300" d="M909 -392H759Q608 -392 520 -320T432 -112Q432 -62 442 -14T463 80Q475 130 484 179T494 280Q494 394 430 456T215 518H164L198 666H249Q416 666 519 759T659 1030L689 1172Q727 1355 854 1455T1177
1556H1327L1299 1425H1185Q1042 1425 969 1355T868 1152L833 987Q800 839 703 749T461 604L453 580Q557 534 615 461T673 287Q673 227 642 99T610 -89Q610 -175 660 -218T823 -261H937L909 -392Z" />
<glyph unicode="|" glyph-name="bar" horiz-adv-x="930" d="M595 -392H421V1556H595V-392Z" />
<glyph unicode="}" glyph-name="braceright" horiz-adv-x="1300" d="M1148 646L1114 498H1063Q892 498 791 404T653 134L623 -8Q582 -194 458 -293T135 -392H-15L13 -261H127Q263 -261 338 -197T444 12L479 177Q495 254 530 313T616 421Q665 468 726 501T851 560L859
584Q752 632 696 705T639 877Q639 935 670 1062T702 1253Q702 1343 648 1384T489 1425H375L403 1556H553Q704 1556 792 1484T880 1276Q880 1228 870 1178T849 1084Q839 1044 829 988T818 884Q818 770 882 708T1097 646H1148Z" />
<glyph unicode="~" glyph-name="asciitilde" horiz-adv-x="1676" d="M1532 927Q1530 828 1510 732T1444 561Q1398 484 1333 440T1168 396Q1108 396 1061 410T974 452Q936 478 906 510T844 577Q818 607 788 642T732 704Q703 731 671 748T600 766Q507 766 457 678T397
395H230Q232 495 252 589T317 761Q360 835 429 880T594 926Q655 926 703 911T791 869Q828 844 858 812T919 745Q942 718 975 679T1032 618Q1062 589 1092 573T1162 556Q1257 556 1307 645T1365 927H1532Z" />
</font>
<font id="Bold" horiz-adv-x="1163" ><font-face
    font-family="PlotFont"
    font-weight="bold"
    font-style="normal"
    units-per-em="2048"
    panose-1="2 11 8 4 3 5 4 4 2 4"
    ascent="2059"
    descent="-430"
    alphabetic="0" />
<missing-glyph horiz-adv-x="2048" d="M256 0V1536H1792V0H256ZM384 128H1664V1408H384V128Z" />
<glyph unicode=" " glyph-name="space" horiz-adv-x="700" />
<glyph unicode="!" glyph-name="exclam" horiz-adv-x="824" d="M621 1489L575 429H249L203 1489H621ZM614 0H210V264H614V0Z" />
<glyph unicode="&quot;" glyph-name="quotedbl" horiz-adv-x="1203" d="M1036 1556L976 967H750L690 1556H1036ZM513 1556L453 967H227L167 1556H513Z" />
<glyph unicode="#" glyph-name="numbersign" horiz-adv-x="1776" d="M1624 905H1308L1230 594H1512V354H1170L1079 0H838L927 354H663L574 0H329L419 354H149V594H479L556 905H263V1144H616L702 1489H947L861 1144H1124L1211 1489H1456L1369 1144H1624V905ZM1068
907H800L720 591H989L1068 907Z" />
<glyph unicode="$" glyph-name="dollar" horiz-adv-x="1456" d="M1340 429Q1340 260 1198 139T821 2V-361H647V-4Q535 -3 388 23T158 88V380H203Q295 330 414 300T652 261V535L555 557Q463 578 386 606T252 680Q196 726 165 793T134 960Q134 1109 270 1215T647
1343V1576H821V1345Q913 1341 1036 1319T1231 1268V980H1187Q1116 1021 1022 1048T821 1082V828L901 812Q1127 768 1233 679T1340 429ZM663 850V1082Q597 1077 545 1049T492 968Q492 921 526 895T663 850ZM977 390Q977 448 924 476T817 513V265Q883 274 930 303T977
390Z" />
<glyph unicode="%" glyph-name="percent" horiz-adv-x="2605" d="M1049 1036Q1049 787 934 667T599 547Q372 547 258 668T143 1032Q143 1279 260 1398T599 1518Q823 1518 936 1399T1049 1036ZM1829 1489L1049 0H780L1560 1489H1829ZM2462 458Q2462 209 2347 89T2012
-31Q1785 -31 1671 90T1556 454Q1556 701 1673 820T2012 940Q2236 940 2349 821T2462 458ZM754 1033Q754 1193 717 1249T596 1305Q512 1305 475 1249T438 1032Q438 871 475 815T596 759Q680 759 717 815T754 1033ZM2167 455Q2167 615 2130 671T2009 727Q1925 727
1888 671T1851 454Q1851 293 1888 237T2009 181Q2093 181 2130 237T2167 455Z" />
<glyph unicode="&amp;" glyph-name="ampersand" horiz-adv-x="1766" d="M1802 0H1326L1187 126Q1087 47 967 8T712 -31Q436 -31 279 96T121 429Q121 514 146 577T212 690Q251 739 302 774T399 834Q357 865 319 899T253 973Q226 1011 211 1058T196 1164Q196 1234
226 1295T316 1406Q378 1457 482 1488T731 1520Q852 1520 947 1496T1107 1428Q1168 1386 1200 1327T1233 1198Q1233 1152 1220 1097T1170 993Q1131 941 1067 896T892 816L1198 547V869H1571V758Q1571 640 1531 532T1421 353L1802 20V0ZM860 1154Q860 1206 844 1236T805
1283Q781 1299 755 1303T713 1307Q696 1307 675 1303T627 1282Q606 1268 590 1241T574 1168Q574 1109 622 1054T747 941Q803 985 831 1038T860 1154ZM1011 295L584 674Q564 654 538 603T512 488Q512 421 538 373T602 293Q642 261 691 245T787 229Q855 229 907 242T1011
295Z" />
<glyph unicode="&apos;" glyph-name="quotesingle" horiz-adv-x="680" d="M513 1556L453 967H227L167 1556H513Z" />
<glyph unicode="(" glyph-name="parenleft" horiz-adv-x="1113" d="M947 -412H570Q378 -187 286 51T193 572Q193 855 285 1093T570 1556H947V1527Q866 1454 793 1362T656 1145Q596 1026 559 881T521 572Q521 401 557 262T656 -1Q716 -119 791 -215T947 -383V-412Z" />
<glyph unicode=")" glyph-name="parenright" horiz-adv-x="1113" d="M920 572Q920 289 828 51T543 -412H166V-383Q246 -312 322 -216T457 -1Q519 123 555 262T592 572Q592 736 555 881T457 1145Q394 1269 321 1361T166 1527V1556H543Q735 1331 827 1093T920 572Z" />
<glyph unicode="*" glyph-name="asterisk" horiz-adv-x="1456" d="M1252 836L1141 671L821 889L832 534H619L627 880L313 670L204 836L559 1045L205 1256L313 1423L626 1210L619 1556H831L823 1209L1140 1420L1251 1254L893 1046L1252 836Z" />
<glyph unicode="+" glyph-name="plus" horiz-adv-x="1776" d="M1558 528H1025V0H751V528H218V796H751V1324H1025V796H1558V528Z" />
<glyph unicode="," glyph-name="comma" horiz-adv-x="740" d="M618 393L258 -370H35L232 393H618Z" />
<glyph unicode="-" glyph-name="hyphen" horiz-adv-x="983" d="M873 518H110V806H873V518Z" />
<glyph unicode="." glyph-name="period" horiz-adv-x="740" d="M557 0H183V393H557V0Z" />
<glyph unicode="/" glyph-name="slash" horiz-adv-x="1412" d="M1223 1556L430 -324H123L913 1556H1223Z" />
<glyph unicode="0" glyph-name="zero" horiz-adv-x="1456" d="M1344 745Q1344 557 1310 409T1204 165Q1130 68 1014 19T728 -31Q561 -31 443 19T252 167Q178 265 145 410T112 744Q112 938 146 1081T254 1323Q328 1421 446 1470T728 1519Q899 1519 1015 1469T1205
1318Q1278 1220 1311 1077T1344 745ZM957 745Q957 1015 904 1129T728 1244Q605 1244 552 1130T499 743Q499 478 553 361T728 244Q849 244 903 361T957 745Z" />
<glyph unicode="1" glyph-name="one" horiz-adv-x="1456" d="M1260 0H266V260H580V1047H266V1290Q338 1290 404 1298T514 1328Q566 1353 592 1393T622 1493H953V260H1260V0Z" />
<glyph unicode="2" glyph-name="two" horiz-adv-x="1456" d="M1354 0H185V246Q319 343 453 452T669 640Q790 757 841 844T892 1016Q892 1118 827 1173T638 1229Q546 1229 445 1191T256 1094H224V1425Q295 1456 433 1487T711 1518Q991 1518 1138 1401T1285 1068Q1285
927 1215 800T999 538Q908 454 816 384T685 285H1354V0Z" />
<glyph unicode="3" glyph-name="three" horiz-adv-x="1456" d="M1208 698Q1257 656 1286 600T1315 451Q1315 346 1274 255T1146 99Q1062 36 949 3T673 -31Q488 -31 356 -2T140 63V390H179Q265 338 384 300T603 262Q661 262 729 271T844 313Q881 338 903 373T925
476Q925 541 895 576T816 627Q767 643 698 644T570 646H488V912H573Q651 912 711 917T813 940Q857 959 879 990T901 1083Q901 1128 878 1155T820 1199Q781 1217 728 1223T637 1229Q543 1229 433 1197T220 1103H183V1426Q265 1459 406 1489T692 1520Q833 1520 939
1496T1114 1430Q1196 1381 1236 1311T1276 1147Q1276 1023 1199 926T996 801V787Q1047 780 1104 759T1208 698Z" />
<glyph unicode="4" glyph-name="four" horiz-adv-x="1456" d="M1375 343H1172V-4H805V343H84V625L781 1489H1172V615H1375V343ZM805 615V1153L372 615H805Z" />
<glyph unicode="5" glyph-name="five" horiz-adv-x="1456" d="M1322 504Q1322 388 1279 289T1152 118Q1060 42 941 6T668 -31Q489 -30 366 -3T164 59V388H206Q297 334 402 298T611 262Q674 262 747 276T864 329Q898 360 915 392T933 491Q933 543 910 580T849 641Q795
674 719 684T581 695Q491 695 409 680T264 649H220V1489H1279V1204H581V961Q612 963 659 964T743 966Q866 966 962 943T1129 877Q1220 822 1271 732T1322 504Z" />
<glyph unicode="6" glyph-name="six" horiz-adv-x="1456" d="M1352 507Q1352 392 1310 291T1192 121Q1111 47 1005 8T755 -31Q621 -31 511 5T321 117Q230 203 182 339T134 664Q134 860 179 1012T326 1281Q424 1393 580 1455T953 1517Q1026 1517 1113 1507T1226
1492V1199H1188Q1161 1212 1097 1228T950 1245Q758 1245 651 1151T522 889Q599 935 684 963T869 992Q956 992 1030 972T1169 908Q1252 850 1302 752T1352 507ZM897 282Q928 316 946 362T965 489Q965 562 944 608T886 683Q850 711 801 721T700 732Q656 732 608 722T520
697Q520 687 519 664T518 606Q518 483 542 404T608 282Q636 251 674 237T756 222Q789 222 829 237T897 282Z" />
<glyph unicode="7" glyph-name="seven" horiz-adv-x="1456" d="M1323 1193L649 0H221L921 1204H156V1489H1323V1193Z" />
<glyph unicode="8" glyph-name="eight" horiz-adv-x="1456" d="M1357 416Q1357 218 1189 92T726 -34Q561 -34 443 0T248 94Q172 153 136 232T99 402Q99 514 164 600T391 752V758Q261 818 200 909T139 1120Q139 1297 303 1410T730 1523Q1006 1523 1162 1421T1319
1147Q1319 1041 1253 958T1051 817V811Q1207 752 1282 652T1357 416ZM944 1104Q944 1180 886 1225T730 1270Q694 1270 657 1261T588 1235Q559 1218 540 1191T521 1128Q521 1069 554 1036T664 970Q692 958 740 941T858 901Q904 955 924 998T944 1104ZM975 399Q975
471 939 508T791 593Q758 608 695 630T589 668Q546 629 512 574T477 449Q477 345 551 284T746 222Q778 222 821 231T895 261Q931 284 953 315T975 399Z" />
<glyph unicode="9" glyph-name="nine" horiz-adv-x="1456" d="M1322 828Q1322 641 1274 480T1128 209Q1022 90 865 31T499 -29Q425 -29 339 -20T226 -4V289H266Q296 275 351 259T503 243Q581 243 656 262T785 324Q844 369 882 436T933 599Q846 549 772 523T586
496Q502 496 426 516T286 580Q203 639 154 735T104 979Q104 1218 270 1368T707 1519Q846 1519 953 1483T1139 1371Q1230 1285 1276 1152T1322 828ZM939 884Q939 1006 916 1084T851 1206Q822 1238 784 1252T704 1266Q665 1266 630 1253T561 1206Q530 1174 511 1122T491
998Q491 928 512 881T570 805Q605 778 652 767T756 756Q801 756 854 767T936 791Q936 802 937 822T939 884Z" />
<glyph unicode=":" glyph-name="colon" horiz-adv-x="824" d="M599 730H225V1123H599V730ZM599 0H225V393H599V0Z" />
<glyph unicode=";" glyph-name="semicolon" horiz-adv-x="824" d="M599 730H225V1123H599V730ZM660 393L300 -370H77L274 393H660Z" />
<glyph unicode="&lt;" glyph-name="less" horiz-adv-x="1776" d="M1540 -7L204 548V776L1540 1331V1044L605 661L1540 280V-7Z" />
<glyph unicode="=" glyph-name="equal" horiz-adv-x="1776" d="M1527 791H249V1059H1527V791ZM1527 265H249V533H1527V265Z" />
<glyph unicode="&gt;" glyph-name="greater" horiz-adv-x="1776" d="M1572 548L236 -7V280L1171 662L236 1044V1331L1572 776V548Z" />
<glyph unicode="?" glyph-name="question" horiz-adv-x="1263" d="M1151 1125Q1151 1024 1122 947T1038 812Q984 755 909 710T738 628V400H386V737Q457 756 514 776T635 841Q694 881 727 934T761 1054Q761 1154 697 1196T515 1239Q443 1239 353 1208T187 1128H147V1433Q211
1460 344 1489T614 1519Q861 1519 1006 1410T1151 1125ZM766 0H362V264H766V0Z" />
<glyph unicode="@" glyph-name="at" horiz-adv-x="1974" d="M1589 1282Q1701 1170 1764 1014T1828 663Q1828 523 1788 379T1688 139H1182L1166 217Q1109 179 1056 157T903 134Q740 134 639 268T538 631Q538 753 572 844T665 1004Q720 1068 798 1104T953 1140Q1019
1140 1070 1116T1149 1064V1126H1381V310H1551Q1587 389 1604 481T1622 659Q1622 828 1575 955T1445 1167Q1360 1253 1246 1295T999 1337Q872 1337 758 1287T556 1152Q467 1065 412 934T356 647Q356 477 408 346T548 128Q635 42 750 -3T993 -48Q1078 -48 1186 -33T1379
8V-186Q1286 -207 1194 -218T993 -229Q810 -229 655 -166T385 13Q272 128 209 291T145 647Q145 833 211 991T393 1268Q506 1384 663 1451T998 1518Q1174 1518 1326 1456T1589 1282ZM1144 404V908Q1103 929 1068 938T989 948Q893 948 841 864T789 634Q789 476 832
400T974 324Q1026 324 1065 344T1144 404Z" />
<glyph unicode="A" glyph-name="A" horiz-adv-x="1590" d="M1566 0H1169L1066 301H514L411 0H24L574 1489H1016L1566 0ZM973 574L790 1108L607 574H973Z" />
<glyph unicode="B" glyph-name="B" horiz-adv-x="1560" d="M1464 456Q1464 348 1421 263T1301 122Q1213 56 1108 28T840 0H190V1489H768Q948 1489 1031 1477T1197 1424Q1282 1381 1323 1309T1365 1143Q1365 1035 1308 953T1147 824V816Q1293 787 1378 696T1464
456ZM972 1068Q972 1105 954 1142T888 1197Q846 1213 784 1214T608 1216H572V901H632Q723 901 787 904T888 924Q940 947 956 983T972 1068ZM1066 462Q1066 533 1039 571T945 629Q900 642 821 643T656 644H572V273H600Q762 273 832 274T961 300Q1021 325 1043 366T1066
462Z" />
<glyph unicode="C" glyph-name="C" horiz-adv-x="1482" d="M863 -29Q697 -29 557 20T315 166Q214 263 159 408T103 743Q103 920 156 1064T310 1311Q407 1410 550 1464T864 1518Q958 1518 1033 1508T1173 1480Q1240 1461 1294 1438T1390 1394V1033H1346Q1318 1057
1276 1090T1179 1155Q1124 1187 1060 1209T923 1231Q842 1231 769 1206T634 1121Q575 1064 539 970T502 742Q502 602 541 508T641 360Q702 305 777 282T925 258Q995 258 1063 279T1190 336Q1239 365 1281 398T1350 455H1390V99Q1334 74 1283 52T1176 14Q1103 -7
1039 -18T863 -29Z" />
<glyph unicode="D" glyph-name="D" horiz-adv-x="1700" d="M1597 743Q1597 535 1502 371T1262 118Q1153 52 1023 26T715 0H190V1489H730Q912 1489 1044 1459T1266 1372Q1420 1278 1508 1119T1597 743ZM1200 746Q1200 893 1147 997T977 1161Q918 1190 857 1200T671
1211H574V279H671Q808 279 872 291T997 337Q1102 397 1151 497T1200 746Z" />
<glyph unicode="E" glyph-name="E" horiz-adv-x="1399" d="M1267 0H190V1489H1267V1201H572V944H1217V656H572V288H1267V0Z" />
<glyph unicode="F" glyph-name="F" horiz-adv-x="1332" d="M1257 1201H572V924H1207V636H572V0H190V1489H1257V1201Z" />
<glyph unicode="G" glyph-name="G" horiz-adv-x="1661" d="M1507 85Q1407 46 1242 8T913 -31Q533 -31 318 175T103 746Q103 1093 320 1305T925 1518Q1072 1518 1205 1492T1501 1386V1037H1458Q1430 1058 1376 1096T1272 1162Q1214 1194 1137 1217T972 1240Q870
1240 787 1210T638 1118Q575 1058 539 966T502 752Q502 505 633 374T1020 243Q1042 243 1068 244T1117 247V539H820V820H1507V85Z" />
<glyph unicode="H" glyph-name="H" horiz-adv-x="1715" d="M1525 0H1141V656H574V0H190V1489H574V944H1141V1489H1525V0Z" />
<glyph unicode="I" glyph-name="I" horiz-adv-x="1118" d="M995 0H123V264H367V1225H123V1489H995V1225H751V264H995V0Z" />
<glyph unicode="J" glyph-name="J" horiz-adv-x="1137" d="M966 437Q966 339 931 254T827 109Q754 46 651 12T396 -23Q293 -23 202 -16T42 6V308H78Q126 290 178 275T311 259Q416 259 472 287T553 365Q576 414 579 472T582 622V1215H241V1489H966V437Z" />
<glyph unicode="K" glyph-name="K" horiz-adv-x="1579" d="M1580 0H1109L664 596L574 487V0H190V1489H574V815L1106 1489H1551L969 800L1580 0Z" />
<glyph unicode="L" glyph-name="L" horiz-adv-x="1305" d="M1264 0H190V1489H574V288H1264V0Z" />
<glyph unicode="M" glyph-name="M" horiz-adv-x="1941" d="M1751 0H1369V997L1093 350H828L552 997V0H190V1489H636L971 742L1305 1489H1751V0Z" />
<glyph unicode="N" glyph-name="N" horiz-adv-x="1734" d="M1544 0H1174L542 1022V0H190V1489H649L1192 636V1489H1544V0Z" />
<glyph unicode="O" glyph-name="O" horiz-adv-x="1741" d="M1638 744Q1638 388 1434 179T870 -31Q511 -31 307 178T103 744Q103 1103 307 1311T870 1520Q1228 1520 1433 1312T1638 744ZM1129 367Q1185 435 1212 527T1239 745Q1239 879 1208 973T1127 1125Q1076
1185 1010 1212T871 1239Q798 1239 734 1213T615 1127Q565 1071 534 973T502 744Q502 611 532 518T613 365Q663 306 730 278T871 250Q945 250 1012 278T1129 367Z" />
<glyph unicode="P" glyph-name="P" horiz-adv-x="1501" d="M1419 1019Q1419 919 1384 824T1284 663Q1195 575 1086 530T813 485H574V0H190V1489H822Q964 1489 1061 1465T1234 1391Q1324 1332 1371 1240T1419 1019ZM1022 1010Q1022 1073 988 1118T909 1182Q849
1206 792 1208T640 1211H574V765H684Q782 765 845 777T952 825Q989 857 1005 901T1022 1010Z" />
<glyph unicode="Q" glyph-name="Q" horiz-adv-x="1741" d="M1129 367Q1185 435 1212 527T1239 745Q1239 879 1208 973T1127 1125Q1076 1185 1010 1212T871 1239Q798 1239 734 1213T615 1127Q565 1071 534 973T502 744Q502 611 532 518T613 365Q663 306 730 278T871
250Q945 250 1012 278T1129 367ZM1170 18Q1174 -81 1224 -124T1395 -167Q1436 -167 1492 -153T1570 -128H1608V-392Q1552 -405 1487 -415T1286 -425Q1167 -425 1079 -396T931 -312Q873 -259 844 -187T810 -27Q476 -8 290 196T103 744Q103 1103 307 1311T870 1520Q1228
1520 1433 1312T1638 744Q1638 479 1518 287T1170 18Z" />
<glyph unicode="R" glyph-name="R" horiz-adv-x="1602" d="M1025 1033Q1025 1089 1002 1129T923 1192Q884 1208 832 1211T711 1215H572V814H690Q782 814 844 823T948 864Q988 895 1006 932T1025 1033ZM1624 0H1155L749 546H572V0H190V1489H834Q966 1489 1061 1474T1239
1409Q1323 1359 1372 1280T1422 1080Q1422 915 1346 811T1127 638L1624 0Z" />
<glyph unicode="S" glyph-name="S" horiz-adv-x="1455" d="M1382 468Q1382 248 1196 111T689 -27Q504 -27 367 5T109 88V445H151Q270 350 417 299T701 248Q736 248 793 254T886 274Q930 292 958 319T987 399Q987 448 946 483T824 538Q740 558 647 575T471 620Q283
681 201 785T118 1045Q118 1253 304 1384T784 1516Q931 1516 1074 1488T1323 1416V1073H1282Q1192 1145 1062 1193T795 1242Q747 1242 700 1236T608 1211Q569 1196 541 1166T513 1096Q513 1037 558 1006T728 948Q810 931 885 915T1048 871Q1219 815 1300 719T1382
468Z" />
<glyph unicode="T" glyph-name="T" horiz-adv-x="1396" d="M1355 1201H890V0H506V1201H41V1489H1355V1201Z" />
<glyph unicode="U" glyph-name="U" horiz-adv-x="1663" d="M1494 539Q1494 263 1326 116T831 -31Q504 -31 337 116T169 538V1489H555V560Q555 405 620 329T831 253Q975 253 1041 326T1108 560V1489H1494V539Z" />
<glyph unicode="V" glyph-name="V" horiz-adv-x="1564" d="M1540 1489L997 0H567L24 1489H427L787 443L1147 1489H1540Z" />
<glyph unicode="W" glyph-name="W" horiz-adv-x="2311" d="M2245 1489L1844 0H1419L1152 970L892 0H467L66 1489H467L696 464L970 1489H1353L1614 464L1854 1489H2245Z" />
<glyph unicode="X" glyph-name="X" horiz-adv-x="1564" d="M1540 0H1096L775 490L448 0H24L552 750L35 1489H478L788 1025L1107 1489H1532L1012 765L1540 0Z" />
<glyph unicode="Y" glyph-name="Y" horiz-adv-x="1509" d="M1500 1489L951 576V0H567V558L9 1489H445L767 913L1078 1489H1500Z" />
<glyph unicode="Z" glyph-name="Z" horiz-adv-x="1417" d="M1341 0H90V279L832 1201H126V1489H1301V1205L560 288H1341V0Z" />
<glyph unicode="[" glyph-name="bracketleft" horiz-adv-x="1113" d="M916 -392H248V1556H916V1316H561V-152H916V-392Z" />
<glyph unicode="\" glyph-name="backslash" horiz-adv-x="1412" d="M1289 -324H982L189 1556H499L1289 -324Z" />
<glyph unicode="]" glyph-name="bracketright" horiz-adv-x="1113" d="M866 -392H198V-152H553V1316H198V1556H866V-392Z" />
<glyph unicode="^" glyph-name="asciicircum" horiz-adv-x="1776" d="M1580 642H1260L872 1209L515 640H197L747 1489H996L1580 642Z" />
<glyph unicode="_" glyph-name="underscore" horiz-adv-x="1456" d="M1472 -350H-16V-139H1472V-350Z" />
<glyph unicode="`" glyph-name="grave" horiz-adv-x="1456" d="M972 1283H726L374 1656V1676H725L972 1283Z" />
<glyph unicode="a" glyph-name="a" horiz-adv-x="1368" d="M850 293V527Q777 521 692 511T563 486Q509 469 481 437T452 351Q452 316 458 294T488 252Q511 232 543 223T643 213Q697 213 752 235T850 293ZM850 119Q821 97 778 66T697 17Q644 -7 587 -18T462 -30Q302
-30 194 69T86 322Q86 445 141 523T297 646Q397 691 545 710T852 738V744Q852 837 776 872T552 908Q463 908 362 877T217 828H184V1099Q241 1114 369 1134T627 1155Q934 1155 1070 1061T1207 764V0H850V119Z" />
<glyph unicode="b" glyph-name="b" horiz-adv-x="1432" d="M1342 577Q1342 312 1196 145T830 -22Q736 -22 665 -2T530 56L515 0H170V1556H530V1006Q613 1072 699 1113T899 1154Q1112 1154 1227 1001T1342 577ZM971 570Q971 720 920 801T738 882Q687 882 633 867T530
822V258Q569 244 604 239T688 234Q831 234 901 318T971 570Z" />
<glyph unicode="c" glyph-name="c" horiz-adv-x="1205" d="M755 -30Q608 -30 487 5T275 113Q186 186 137 297T88 557Q88 714 140 828T287 1017Q378 1088 497 1121T744 1154Q859 1154 956 1129T1137 1064V757H1086Q1065 775 1036 799T963 846Q922 868 873 882T759
897Q615 897 538 806T460 557Q460 395 539 311T765 227Q833 227 887 242T978 279Q1012 299 1038 321T1086 364H1137V57Q1052 17 960 -6T755 -30Z" />
<glyph unicode="d" glyph-name="d" horiz-adv-x="1432" d="M1262 0H902V117Q809 41 728 5T541 -31Q336 -31 213 127T90 553Q90 696 131 806T245 996Q313 1071 410 1112T604 1154Q705 1154 769 1133T902 1078V1556H1262V0ZM902 310V861Q864 877 822 884T745 891Q603
891 532 803T461 557Q461 392 518 318T701 243Q750 243 805 261T902 310Z" />
<glyph unicode="e" glyph-name="e" horiz-adv-x="1360" d="M1276 495H452Q460 363 552 293T825 223Q939 223 1046 264T1215 352H1255V63Q1133 14 1025 -8T786 -30Q448 -30 268 122T88 555Q88 833 258 995T726 1158Q1000 1158 1138 1020T1276 621V495ZM918 706Q915
819 862 876T697 933Q593 933 526 879T451 706H918Z" />
<glyph unicode="f" glyph-name="f" horiz-adv-x="865" d="M898 1292H871Q847 1299 809 1308T726 1317Q620 1317 583 1279T545 1132V1123H823V879H557V0H197V879H43V1123H197V1154Q197 1360 306 1463T638 1566Q718 1566 783 1561T898 1546V1292Z" />
<glyph unicode="g" glyph-name="g" horiz-adv-x="1432" d="M1262 129Q1262 -29 1217 -137T1091 -306Q1010 -368 896 -395T637 -423Q520 -423 407 -409T210 -375V-94H254Q320 -120 415 -141T585 -163Q685 -163 747 -145T843 -92Q874 -60 888 -10T902 110V131Q837
78 758 47T582 16Q346 16 218 158T90 590Q90 729 129 830T239 1006Q305 1076 401 1115T599 1154Q690 1154 764 1133T900 1073L913 1123H1262V129ZM902 354V863Q871 876 826 883T745 891Q603 891 532 810T461 582Q461 420 521 356T701 292Q755 292 807 309T902 354Z"
/>
<glyph unicode="h" glyph-name="h" horiz-adv-x="1459" d="M1298 0H936V557Q936 625 929 692T905 792Q885 829 847 846T739 863Q690 863 640 847T530 796V0H170V1556H530V999Q626 1074 714 1114T911 1154Q1093 1154 1195 1048T1298 731V0Z" />
<glyph unicode="i" glyph-name="i" horiz-adv-x="700" d="M530 0H170V1123H530V0ZM540 1283H160V1556H540V1283Z" />
<glyph unicode="j" glyph-name="j" horiz-adv-x="825" d="M656 -20Q656 -210 539 -316T238 -423Q140 -423 60 -415T-58 -397V-139H-30Q0 -149 45 -156T116 -163Q220 -163 258 -101T296 103V879H83V1123H656V-20ZM656 1283H273V1556H656V1283Z" />
<glyph unicode="k" glyph-name="k" horiz-adv-x="1374" d="M1362 0H943L628 489L530 370V0H170V1556H530V627L918 1123H1333L929 639L1362 0Z" />
<glyph unicode="l" glyph-name="l" horiz-adv-x="700" d="M530 0H170V1556H530V0Z" />
<glyph unicode="m" glyph-name="m" horiz-adv-x="2167" d="M1268 796V0H906V561Q906 643 902 700T880 794Q862 830 826 846T723 863Q670 863 620 842T530 796V0H170V1123H530V999Q623 1072 708 1113T896 1154Q1007 1154 1092 1105T1225 959Q1333 1050 1435 1102T1635
1154Q1817 1154 1911 1045T2006 731V0H1644V561Q1644 644 1641 701T1619 794Q1602 830 1565 846T1461 863Q1416 863 1373 848T1268 796Z" />
<glyph unicode="n" glyph-name="n" horiz-adv-x="1459" d="M1298 0H936V557Q936 625 929 692T905 792Q885 829 847 846T739 863Q690 863 640 847T530 796V0H170V1123H530V999Q626 1074 714 1114T911 1154Q1093 1154 1195 1048T1298 731V0Z" />
<glyph unicode="o" glyph-name="o" horiz-adv-x="1406" d="M1318 561Q1318 284 1157 125T703 -35Q411 -35 250 124T88 561Q88 840 250 999T703 1158Q997 1158 1157 998T1318 561ZM875 288Q910 331 927 391T945 559Q945 658 927 725T877 832Q845 873 800 890T703
907Q651 907 611 893T533 837Q500 798 481 730T461 559Q461 467 478 400T528 291Q560 252 604 234T706 216Q755 216 799 232T875 288Z" />
<glyph unicode="p" glyph-name="p" horiz-adv-x="1432" d="M1342 577Q1342 438 1300 324T1188 136Q1116 58 1025 18T830 -22Q734 -22 667 -2T530 56V-412H170V1123H530V1006Q613 1072 699 1113T899 1154Q1109 1154 1225 1000T1342 577ZM971 570Q971 734 915 808T738
882Q687 882 633 867T530 822V257Q566 243 607 239T688 235Q831 235 901 318T971 570Z" />
<glyph unicode="q" glyph-name="q" horiz-adv-x="1432" d="M1262 -412H902V110Q814 39 730 4T541 -31Q335 -31 213 127T90 553Q90 696 131 806T245 996Q313 1071 410 1112T604 1154Q699 1154 763 1133T900 1073L913 1123H1262V-412ZM902 310V861Q864 877 822 884T745
891Q603 891 532 803T461 557Q461 392 518 318T701 243Q750 243 805 261T902 310Z" />
<glyph unicode="r" glyph-name="r" horiz-adv-x="1018" d="M984 780H952Q929 788 878 792T793 796Q716 796 657 786T530 752V0H170V1123H530V958Q649 1060 737 1093T899 1127Q918 1127 942 1126T984 1123V780Z" />
<glyph unicode="s" glyph-name="s" horiz-adv-x="1215" d="M1146 356Q1146 182 990 76T563 -31Q413 -31 291 -3T95 59V355H128Q155 336 190 314T291 265Q347 242 418 226T570 209Q676 209 727 232T778 302Q778 343 748 361T634 397Q594 406 526 416T401 442Q248
482 174 566T100 777Q100 939 253 1046T673 1154Q799 1154 914 1129T1095 1074V790H1064Q984 845 882 879T674 914Q587 914 528 890T468 822Q468 782 495 761T622 719Q677 708 740 698T868 671Q1010 634 1078 555T1146 356Z" />
<glyph unicode="t" glyph-name="t" horiz-adv-x="933" d="M888 10Q830 -5 765 -13T606 -22Q396 -22 294 63T191 354V879H43V1123H191V1444H551V1123H888V879H551V481Q551 422 552 378T568 299Q582 264 617 244T721 223Q749 223 794 235T858 257H888V10Z" />
<glyph unicode="u" glyph-name="u" horiz-adv-x="1459" d="M1289 0H929V124Q829 48 746 9T548 -31Q362 -31 262 76T161 392V1123H523V566Q523 481 528 425T554 331Q573 294 611 277T719 260Q765 260 821 277T929 327V1123H1289V0Z" />
<glyph unicode="v" glyph-name="v" horiz-adv-x="1331" d="M1301 1123L868 0H460L30 1123H411L671 351L928 1123H1301Z" />
<glyph unicode="w" glyph-name="w" horiz-adv-x="2006" d="M1961 1123L1613 0H1231L1002 757L777 0H390L45 1123H423L615 349L855 1123H1174L1402 349L1591 1123H1961Z" />
<glyph unicode="x" glyph-name="x" horiz-adv-x="1370" d="M1344 0H924L684 336L438 0H26L469 561L33 1123H453L689 793L926 1123H1339L902 570L1344 0Z" />
<glyph unicode="y" glyph-name="y" horiz-adv-x="1333" d="M677 397L933 1123H1303L679 -412H289L467 8L30 1123H408L677 397Z" />
<glyph unicode="z" glyph-name="z" horiz-adv-x="1222" d="M1139 0H84V231L676 860H108V1123H1128V896L545 268H1139V0Z" />
<glyph unicode="{" glyph-name="braceleft" horiz-adv-x="1456" d="M1255 -392H981Q787 -392 672 -294T556 -5V142Q556 320 477 389T222 459H152V705H222Q398 705 477 774T556 1022V1169Q556 1359 671 1457T981 1556H1255V1332H1141Q1081 1332 1033 1323T951 1289Q917
1263 900 1214T883 1086V977Q883 837 805 743T581 594V570Q726 515 804 421T883 187V78Q883 0 900 -49T951 -125Q983 -151 1032 -159T1141 -168H1255V-392Z" />
<glyph unicode="|" glyph-name="bar" horiz-adv-x="1113" d="M702 -392H411V1556H702V-392Z" />
<glyph unicode="}" glyph-name="braceright" horiz-adv-x="1456" d="M1304 459H1234Q1058 459 979 390T900 142V-5Q900 -195 785 -293T475 -392H201V-168H315Q375 -168 423 -159T505 -125Q539 -99 556 -50T573 78V187Q573 327 651 421T875 570V594Q730 649 652
743T573 977V1086Q573 1164 556 1213T505 1289Q472 1314 424 1323T315 1332H201V1556H475Q669 1556 784 1458T900 1169V1022Q900 844 979 775T1234 705H1304V459Z" />
<glyph unicode="~" glyph-name="asciitilde" horiz-adv-x="1776" d="M1623 1007Q1622 679 1514 503T1190 327Q1119 327 1066 343T969 388Q927 417 894 451T824 528Q800 557 768 598T712 664Q683 695 657 712T597 730Q537 730 506 699T458 619Q440 565 435 484T427
325H157Q157 660 268 832T590 1005Q658 1005 713 988T813 942Q855 914 889 879T958 804Q982 775 1010 738T1070 667Q1103 633 1129 618T1183 602Q1240 602 1273 631T1322 713Q1339 766 1345 841T1353 1007H1623Z" />
</font>
</defs>
</svg>
